<?xml version="1.0" standalone="no"?>
<!DOCTYPE svg PUBLIC "-//W3C//DTD SVG 20010904//EN"
 "http://www.w3.org/TR/2001/REC-SVG-20010904/DTD/svg10.dtd">
<svg version="1.0" xmlns="http://www.w3.org/2000/svg"
 width="2172.000000pt" height="724.000000pt" viewBox="0 0 2172.000000 724.000000"
 preserveAspectRatio="xMidYMid meet">

<g transform="translate(0.000000,724.000000) scale(0.100000,-0.100000)"
fill="#000000" stroke="none">
<path d="M10860 6932 c0 -28 -4 -107 -9 -174 -6 -68 -15 -193 -22 -278 -7 -85
-12 -196 -13 -246 -1 -61 -6 -96 -15 -107 -10 -13 -12 -33 -7 -75 12 -107 6
-571 -14 -1009 -12 -275 -15 -297 -38 -287 -10 3 -29 7 -43 8 -16 1 -36 13
-53 33 -34 40 -97 54 -126 28 -18 -16 -21 -16 -44 -2 -13 9 -32 33 -42 53 -20
41 -22 42 -102 73 -55 21 -133 82 -206 161 -22 24 -51 53 -64 65 -12 11 -61
57 -108 103 -82 79 -112 94 -98 49 4 -12 36 -65 72 -117 134 -194 181 -267
206 -323 14 -31 29 -57 35 -57 5 0 26 -30 46 -67 20 -38 48 -80 61 -94 33 -35
41 -89 20 -134 -10 -20 -24 -39 -31 -41 -7 -3 -42 -1 -77 6 -35 6 -87 12 -117
13 -53 3 -53 2 -22 -10 35 -15 40 -23 12 -23 -11 0 -34 12 -51 26 -17 15 -34
23 -38 19 -12 -12 44 -52 105 -75 75 -27 143 -60 143 -68 0 -4 19 -20 41 -37
44 -32 76 -82 62 -96 -5 -5 -26 -11 -48 -14 -22 -3 -65 -10 -95 -15 -30 -5
-124 -14 -209 -21 l-155 -12 -40 45 c-23 24 -53 58 -67 76 -27 32 -74 51 -89
36 -5 -5 -5 -38 -1 -73 7 -56 5 -67 -14 -95 -41 -60 -126 -131 -243 -202 -64
-39 -118 -76 -119 -81 -2 -6 9 -25 24 -44 l28 -33 3 -410 c2 -226 0 -426 -3
-444 -3 -18 -22 -51 -41 -72 -20 -22 -34 -47 -32 -57 2 -10 26 -28 53 -41 156
-74 344 -217 391 -297 14 -25 31 -44 38 -42 6 2 28 29 50 60 51 74 175 192
255 242 115 73 166 107 186 127 20 19 20 19 -8 44 -16 13 -33 39 -38 57 -11
40 -11 766 0 825 5 24 18 53 30 66 26 27 27 44 3 54 -37 15 -200 113 -212 127
-11 13 -7 15 26 15 71 0 301 -44 355 -67 l42 -18 -33 -33 c-26 -26 -30 -35
-20 -47 11 -13 15 -13 33 0 12 8 33 15 47 14 21 0 18 -3 -17 -17 -23 -10 -47
-22 -53 -28 -15 -15 5 -64 25 -64 17 0 20 -36 5 -75 -9 -24 -8 -25 10 -15 11
6 20 17 20 25 0 8 5 15 12 15 6 0 26 11 44 25 37 28 44 30 44 13 0 -7 -23 -26
-50 -43 -27 -16 -50 -33 -50 -37 0 -4 -7 -14 -16 -22 -14 -15 -14 -16 5 -16
11 0 32 5 47 11 22 8 35 6 61 -8 36 -19 42 -43 18 -83 -63 -108 -73 -149 -67
-298 2 -55 5 -63 26 -71 13 -5 26 -17 30 -27 9 -24 -4 -133 -19 -164 -7 -14
-20 -61 -30 -105 -9 -44 -27 -96 -39 -115 -64 -100 -74 -118 -86 -155 -7 -22
-19 -49 -26 -60 -21 -33 -27 -108 -13 -171 17 -81 22 -88 88 -133 55 -37 59
-43 65 -88 3 -27 13 -59 22 -71 18 -26 104 -72 133 -72 27 0 31 -9 35 -80 3
-41 10 -68 22 -82 16 -16 18 -34 16 -95 -2 -66 1 -82 28 -139 16 -35 30 -73
30 -84 0 -10 9 -43 21 -71 18 -46 21 -87 29 -331 5 -153 14 -295 19 -316 5
-20 12 -86 16 -147 3 -60 13 -182 20 -270 8 -88 15 -163 15 -167 0 -5 4 -8 9
-8 16 0 68 584 75 852 l6 196 41 77 42 77 -7 124 c-9 172 12 239 110 357 42
50 74 141 74 209 0 72 28 114 96 148 28 14 81 52 118 85 58 53 69 68 86 124
11 35 20 77 20 93 0 79 -66 241 -125 308 -25 27 -87 166 -111 245 -23 76 -35
199 -28 300 4 71 2 100 -11 135 -26 70 -25 84 8 88 18 2 45 -7 76 -27 68 -44
81 -41 81 14 0 36 5 48 24 60 22 15 29 15 68 2 38 -13 43 -13 46 -1 6 27 -7
43 -53 65 -47 22 -77 55 -90 99 -4 14 -19 35 -33 46 l-26 21 48 22 c27 12 106
30 175 40 151 23 490 55 498 47 25 -25 -145 -289 -246 -380 -191 -174 -206
-196 -128 -196 34 0 79 17 207 80 90 44 173 80 186 80 19 0 23 -7 29 -52 43
-347 121 -595 257 -813 65 -103 161 -218 243 -288 131 -113 339 -222 482 -252
92 -20 261 -19 342 1 116 29 273 121 419 245 70 60 73 61 92 44 42 -38 60 -96
60 -196 0 -123 -17 -271 -33 -281 -7 -4 -428 -7 -937 -7 -720 0 -982 -3 -1180
-15 -314 -20 -444 -32 -466 -44 -46 -26 118 -46 511 -62 143 -6 294 -13 335
-15 41 -2 441 -4 889 -4 l814 -1 -6 -34 c-8 -48 -80 -226 -132 -324 -102 -193
-335 -459 -527 -605 -40 -30 -84 -67 -98 -82 -24 -26 -25 -27 -6 -41 11 -8 25
-14 32 -14 21 0 88 31 164 78 408 246 757 601 946 962 l29 55 1898 2 c1522 2
1897 0 1897 -10 0 -7 -23 -40 -51 -72 -28 -33 -67 -84 -86 -113 -19 -29 -41
-55 -49 -58 -26 -8 -39 -14 -104 -50 -72 -40 -151 -63 -221 -64 -38 0 -53 5
-79 30 -49 45 -150 72 -300 77 -210 8 -354 -35 -555 -165 -123 -80 -251 -207
-297 -295 -19 -36 -64 -93 -106 -135 -94 -95 -208 -152 -305 -152 -43 0 -69
-6 -85 -18 l-22 -17 32 -20 c27 -16 52 -20 138 -20 95 0 110 3 163 28 32 16
70 39 85 51 15 13 45 26 67 29 102 17 174 37 215 60 25 14 63 29 85 33 48 9
106 43 128 77 21 32 133 107 160 107 11 0 28 7 38 16 10 9 37 20 61 25 24 5
74 19 111 31 53 16 73 18 90 10 12 -6 46 -13 75 -15 30 -2 60 -11 68 -19 22
-22 2 -67 -36 -81 -24 -9 -30 -17 -28 -37 3 -21 -2 -26 -25 -28 -38 -5 -44
-28 -16 -58 46 -50 170 -94 262 -94 59 0 163 33 207 65 18 14 41 25 50 25 16
0 152 82 178 107 7 7 24 13 37 13 31 0 177 75 206 106 l24 26 -30 -7 c-28 -6
-29 -5 -11 9 14 11 24 13 37 5 11 -5 19 -6 19 -1 0 5 -11 14 -24 20 -33 15
-24 51 29 110 44 49 171 132 202 132 10 0 47 9 81 20 74 23 230 28 250 8 21
-21 13 -56 -18 -80 -17 -12 -30 -24 -30 -28 0 -3 14 -14 30 -24 36 -21 217
-33 271 -18 19 5 43 6 54 2 19 -7 19 -7 0 -18 -16 -9 -17 -11 -4 -12 9 0 28 9
41 20 14 10 28 17 30 14 3 -2 18 2 34 10 15 9 31 13 34 9 3 -3 0 -8 -6 -10 -7
-2 -38 -20 -69 -39 -32 -19 -60 -32 -63 -30 -6 7 -78 -30 -129 -66 -23 -17
-47 -28 -54 -26 -7 2 3 14 22 26 52 33 26 26 -54 -15 -120 -60 -189 -104 -243
-152 -28 -25 -63 -54 -78 -64 -53 -36 -21 -69 56 -58 26 4 64 20 86 34 31 22
50 27 98 27 101 0 263 28 322 55 59 27 125 77 268 202 59 52 107 86 131 92 29
8 45 21 66 54 15 24 27 47 27 51 0 12 -50 -3 -76 -23 -15 -12 -31 -21 -37 -21
-5 0 -35 -16 -67 -35 -32 -20 -80 -42 -105 -50 -26 -7 -57 -23 -69 -34 -11
-11 -34 -23 -50 -27 -33 -8 -32 -6 21 64 18 24 33 50 33 57 0 8 27 26 60 41
33 15 60 30 60 34 0 4 30 20 68 35 37 15 91 46 120 70 29 24 77 55 105 69 43
20 163 94 202 124 6 4 18 6 28 4 10 -2 66 11 125 28 80 24 125 45 179 81 39
27 76 49 81 49 5 0 15 7 23 16 7 9 31 24 54 35 36 17 385 345 385 362 0 3 -21
7 -47 9 -44 3 -48 5 -51 30 -4 37 3 48 76 112 47 40 75 56 105 61 52 8 183 92
248 158 61 62 157 255 179 360 12 54 55 144 94 196 14 19 26 44 26 56 0 30 27
64 38 47 12 -18 33 30 21 49 -5 8 -9 43 -9 79 0 82 -22 185 -51 241 -21 42
-86 131 -101 137 -4 2 -5 18 -2 35 l5 32 -21 -37 c-23 -43 -44 -51 -34 -13 6
23 4 25 -29 25 -20 0 -39 4 -42 10 -9 15 -36 12 -56 -6 -25 -22 -36 -12 -43
41 -4 24 -11 47 -17 50 -12 8 -11 81 2 130 6 22 28 56 50 79 22 21 58 74 82
116 34 63 53 86 95 114 58 39 108 56 164 56 31 0 43 -7 81 -51 37 -42 49 -50
73 -47 26 3 29 7 32 42 2 22 1 50 -2 62 -9 33 -122 152 -165 173 -80 40 -164
54 -288 49 -65 -3 -124 -7 -132 -9 -7 -2 -15 4 -16 14 -6 33 121 97 192 97 18
0 44 6 56 14 12 7 78 24 146 37 114 21 129 26 182 66 61 45 81 81 59 108 -16
19 -40 19 -82 1 -18 -8 -67 -25 -108 -37 -67 -20 -124 -49 -141 -72 -6 -8 -16
-10 -102 -22 -26 -3 -62 -12 -80 -19 -18 -8 -57 -16 -87 -20 -32 -4 -92 -24
-143 -48 -104 -49 -119 -45 -85 28 27 56 86 157 137 229 40 58 193 234 246
285 83 79 185 230 154 230 -17 0 -93 -52 -157 -109 -56 -50 -114 -113 -383
-420 -41 -46 -87 -106 -104 -132 -16 -26 -51 -78 -76 -116 -114 -168 -177
-307 -279 -616 -29 -88 -31 -107 -27 -180 7 -108 29 -224 50 -266 9 -19 17
-39 17 -45 0 -6 11 -34 24 -62 17 -37 38 -61 71 -84 36 -25 54 -47 77 -97 27
-56 30 -72 25 -124 -5 -57 -46 -158 -71 -178 -6 -4 -28 -11 -48 -14 -28 -4
-38 -2 -38 8 0 28 -20 25 -57 -8 -21 -18 -57 -45 -80 -60 -34 -21 -50 -42 -73
-94 -21 -45 -34 -63 -41 -56 -6 6 -9 146 -7 409 l3 399 34 54 c27 41 32 57 24
69 -5 9 -61 51 -124 94 -63 42 -149 109 -191 147 -78 72 -100 83 -116 56 -4
-9 -53 -65 -107 -124 l-98 -108 -62 71 c-34 39 -79 97 -99 129 -24 37 -43 57
-56 57 -12 0 -38 -25 -69 -67 -58 -77 -171 -205 -217 -245 l-30 -27 -50 23
c-89 41 -225 138 -315 224 l-88 83 -20 -23 c-10 -13 -38 -46 -60 -75 -70 -90
-230 -217 -348 -276 -28 -15 -55 -31 -58 -37 -4 -6 5 -28 19 -49 l26 -37 0
-446 0 -446 -25 -30 c-42 -50 -34 -67 47 -108 122 -62 209 -124 308 -222 l94
-94 18 23 c92 122 169 193 321 295 87 59 161 113 164 120 3 7 -5 25 -16 40
-21 26 -21 35 -21 466 0 449 3 494 36 467 12 -10 21 -9 44 4 28 17 29 17 44
-5 14 -20 16 -82 16 -496 l0 -474 -45 -45 c-25 -24 -45 -47 -45 -52 0 -14 25
-38 81 -80 36 -26 86 -81 134 -146 43 -58 81 -105 84 -105 4 0 20 21 38 47 46
71 138 173 190 213 25 19 52 45 60 57 14 20 11 24 -41 62 -42 31 -57 49 -61
73 -3 18 -5 223 -3 455 l3 423 40 40 41 41 39 -35 40 -34 -1 -502 c-1 -374 -4
-515 -14 -556 -12 -49 -11 -57 5 -88 19 -34 19 -35 0 -57 -11 -12 -49 -35 -84
-51 -35 -16 -81 -43 -102 -61 -78 -66 -107 -87 -117 -87 -6 0 -50 -43 -98 -95
-70 -77 -100 -101 -158 -130 -39 -19 -81 -35 -92 -35 -12 0 -48 12 -80 26 -97
43 -176 55 -274 44 -129 -16 -223 -46 -350 -112 l-115 -60 -297 7 c-164 4
-298 9 -298 10 0 1 38 40 85 88 140 144 212 268 262 452 l27 100 -3 542 c-3
580 0 629 45 682 13 16 24 36 24 45 0 8 -26 32 -57 52 -91 58 -203 147 -263
208 -30 31 -60 56 -66 56 -7 0 -32 -27 -57 -60 -45 -61 -144 -170 -153 -170
-3 0 -4 190 -1 423 4 467 5 475 73 612 40 82 40 86 14 110 -18 17 -21 17 -46
1 -33 -23 -160 -133 -304 -266 -63 -59 -143 -125 -176 -148 -34 -22 -64 -48
-67 -56 -6 -15 12 -34 55 -56 59 -29 59 -29 54 -388 -3 -180 -5 -340 -4 -357
0 -16 2 -258 4 -537 l4 -507 -28 -32 c-24 -27 -33 -31 -57 -25 -16 4 -46 24
-67 45 l-38 39 0 923 c0 1002 1 1016 55 1151 14 36 44 90 66 119 21 29 39 58
39 64 0 15 -21 35 -38 35 -29 0 -152 -82 -262 -175 -63 -54 -142 -120 -175
-148 -33 -28 -93 -75 -132 -104 -40 -30 -73 -61 -73 -69 0 -8 20 -23 44 -34
75 -32 76 -36 76 -375 0 -280 -1 -298 -20 -322 -19 -25 -19 -25 0 -64 19 -36
20 -60 20 -523 0 -269 -4 -495 -9 -509 -19 -50 -69 -78 -57 -33 14 57 -21 72
-82 34 l-35 -21 -18 22 c-18 22 -19 51 -19 493 0 512 -2 494 59 552 17 17 31
37 31 46 0 10 -40 54 -89 99 -49 45 -106 104 -126 131 l-37 50 23 37 c41 66
118 152 174 193 30 22 55 47 55 55 0 8 -24 32 -53 53 -94 70 -138 131 -157
218 -12 51 -25 74 -44 74 -6 -1 -36 -37 -66 -81 -64 -93 -97 -135 -202 -257
-54 -63 -78 -98 -78 -117 0 -36 18 -39 75 -15 48 21 49 21 74 2 27 -19 131
-151 131 -165 0 -4 -67 -77 -149 -161 -147 -150 -170 -183 -156 -225 8 -26 33
-27 75 -3 31 17 31 17 51 -7 18 -22 19 -42 19 -497 l0 -475 -45 -45 c-25 -24
-45 -48 -45 -51 0 -4 42 -48 93 -98 81 -80 123 -132 181 -227 9 -16 20 -28 25
-28 5 0 28 26 52 58 49 65 187 223 230 265 l30 27 47 -42 c131 -119 198 -189
239 -245 25 -35 46 -63 48 -63 1 0 32 39 68 88 36 48 96 120 134 161 l68 73
51 -41 c49 -39 176 -175 219 -236 l21 -28 85 104 c48 57 112 130 143 162 33
33 56 65 54 74 -2 10 -21 29 -42 43 -67 46 -65 29 -66 512 l0 436 26 31 c32
38 53 39 86 4 l26 -28 3 -685 c2 -673 1 -686 -20 -764 -29 -110 -109 -251
-158 -279 -18 -11 -2863 -21 -2996 -11 -84 6 -98 9 -93 23 14 43 66 237 86
321 27 112 40 140 78 172 16 12 37 36 47 51 l18 29 -50 46 c-34 32 -54 60 -62
87 -7 26 -11 179 -11 441 0 339 2 409 16 455 23 76 51 128 92 171 33 35 37 37
53 22 12 -11 27 -14 45 -10 55 14 54 25 54 -491 0 -500 0 -499 -47 -536 -12
-10 -23 -25 -23 -32 0 -8 35 -38 78 -68 69 -49 217 -190 271 -257 l20 -25 18
25 c9 14 53 63 97 110 44 47 85 91 91 98 10 11 25 -6 79 -87 36 -55 66 -103
66 -106 0 -18 56 -85 71 -85 11 0 32 22 55 58 42 66 101 137 200 242 98 103
125 160 90 189 -12 10 -23 8 -56 -11 l-41 -23 -20 24 c-18 22 -19 42 -19 493
0 517 -2 496 64 555 22 19 34 37 30 46 -3 8 -34 38 -69 66 -65 53 -103 97
-218 251 -49 66 -69 86 -91 88 -26 3 -27 1 -22 -25 30 -152 24 -174 -79 -281
-52 -53 -87 -83 -92 -76 -5 5 -25 23 -46 39 -36 27 -140 163 -179 234 -21 39
-39 33 -72 -22 -14 -23 -69 -89 -123 -147 l-99 -104 -440 -6 c-425 -7 -441 -7
-503 -30 -66 -24 -171 -89 -230 -144 -52 -48 -147 -180 -166 -230 -10 -26 -21
-46 -26 -46 -4 0 -7 359 -6 797 l2 798 40 18 c22 11 48 26 58 35 15 14 24 13
90 -13 207 -80 327 -148 406 -229 39 -40 45 -52 49 -98 7 -94 -25 -157 -155
-307 -72 -82 -83 -121 -35 -121 41 0 120 51 308 202 333 265 505 381 889 598
110 63 230 133 268 156 l67 42 2018 4 c2173 4 2372 1 2429 -40 17 -12 36 -28
43 -37 11 -13 17 -11 51 19 67 61 74 63 364 80 262 16 434 31 485 43 22 5 20
7 -16 14 -46 8 -223 23 -489 40 -231 14 -273 22 -335 65 l-51 35 -49 -36 c-42
-31 -58 -36 -102 -37 -429 -4 -4007 -5 -4045 -2 -63 6 -66 17 -17 65 117 113
79 159 -62 74 -95 -58 -211 -116 -293 -145 -62 -23 -67 -23 -190 -10 -69 7
-263 15 -431 17 l-305 5 -80 52 c-90 59 -174 149 -207 222 -47 106 -34 253 33
386 34 66 39 118 12 118 -42 0 -92 -50 -242 -243 -102 -132 -330 -363 -449
-455 l-94 -72 -236 0 c-337 1 -577 15 -644 38 l-53 19 -44 -24 c-33 -17 -60
-23 -110 -23 -36 0 -106 -5 -156 -11 -49 -5 -153 -14 -230 -19 -189 -12 -456
-37 -462 -43 -15 -15 161 -34 437 -47 439 -20 507 -27 541 -50 16 -12 38 -20
47 -17 9 3 36 13 59 21 51 19 562 34 603 18 23 -9 17 -13 -85 -64 -208 -104
-379 -159 -575 -184 -116 -15 -150 -25 -150 -44 0 -4 34 -24 76 -44 82 -41
139 -86 149 -117 5 -13 -12 -51 -53 -122 -117 -200 -190 -361 -267 -587 -20
-58 -39 -111 -44 -119 -7 -11 -48 -10 -257 3 -137 10 -287 23 -334 29 -84 13
-85 13 -82 40 3 25 54 87 73 87 16 0 129 117 129 133 0 10 13 23 28 30 16 7
54 35 85 63 52 48 54 52 34 58 -40 11 -67 7 -61 -8 6 -16 -31 -41 -46 -31 -5
3 -25 -12 -45 -33 -41 -46 -155 -105 -202 -106 -58 0 -59 14 -9 108 25 47 54
94 65 105 17 17 41 62 75 141 9 19 20 42 25 50 5 8 15 31 23 50 9 19 31 54 49
76 19 23 42 55 51 70 10 16 33 49 53 74 66 86 126 202 111 217 -9 10 -95 -69
-152 -139 -79 -95 -210 -217 -260 -239 -23 -10 -47 -26 -55 -35 -7 -8 -30 -24
-50 -35 -21 -10 -44 -31 -51 -46 -7 -16 -32 -37 -58 -50 -56 -28 -66 -28 -73
-3 -7 27 -29 34 -81 26 -38 -6 -46 -12 -55 -36 -18 -53 -65 -30 -75 37 -17
120 -36 594 -37 933 -1 292 -11 583 -30 865 -21 301 -27 310 -21 30 8 -377 6
-411 -21 -402 -18 6 -25 81 -16 176 9 96 13 541 4 549 -3 3 -5 -18 -5 -46z
m3197 -654 c-75 -130 -91 -295 -38 -412 81 -182 332 -349 601 -400 273 -52
663 36 931 209 39 25 73 44 76 41 2 -2 -42 -40 -99 -85 -107 -83 -305 -205
-660 -405 -309 -174 -481 -292 -733 -502 -158 -132 -265 -214 -277 -214 -6 0
21 33 59 74 88 91 133 179 140 268 7 88 -15 128 -113 207 -90 73 -174 117
-344 182 l-124 47 37 18 c29 14 34 20 25 31 -14 17 -44 8 -77 -24 -14 -14 -78
-67 -142 -118 -141 -114 -215 -193 -287 -305 -135 -208 -226 -449 -261 -685
-10 -69 -27 -293 -23 -307 1 -4 6 -60 12 -124 24 -270 105 -519 231 -705 51
-77 147 -173 212 -214 51 -33 56 -50 12 -50 -15 0 -30 -5 -32 -11 -2 -6 16
-10 47 -11 31 0 47 3 44 9 -4 6 -8 81 -10 167 -7 287 -3 1563 5 1836 7 242 10
274 27 300 l19 29 6 -109 c4 -61 8 -330 8 -599 1 -389 -1 -491 -11 -498 -11
-6 -11 -8 0 -8 10 0 13 -83 12 -427 -2 -521 -7 -658 -27 -642 -7 6 -13 9 -13
6 0 -3 -2 -12 -6 -20 -7 -19 75 -54 174 -73 211 -42 470 44 585 194 l27 36 0
331 c0 315 1 334 20 357 l19 25 -25 12 c-29 13 -45 14 -25 2 11 -7 9 -13 -7
-29 l-21 -21 -58 27 c-52 24 -69 27 -168 27 -102 0 -115 -2 -185 -32 -86 -37
-162 -103 -192 -167 l-19 -41 4 42 c14 120 153 303 291 382 147 84 188 89 718
84 l257 -3 -54 -51 c-52 -49 -82 -99 -113 -189 -23 -66 -28 -870 -7 -946 14
-49 68 -114 95 -114 21 0 8 -19 -30 -44 -53 -35 -77 -85 -105 -224 -100 -484
-372 -898 -834 -1268 -110 -88 -323 -234 -342 -234 -6 0 29 31 78 69 116 90
291 273 375 391 152 214 257 468 302 735 20 118 33 405 18 405 -6 0 -14 9 -17
21 -4 12 -23 39 -42 60 l-36 40 20 22 c48 54 84 118 89 164 l6 48 -30 -35
c-17 -19 -29 -41 -27 -48 7 -18 -60 -106 -138 -181 -70 -67 -167 -144 -174
-138 -10 10 41 76 84 109 26 20 62 51 78 68 17 18 -13 0 -65 -39 -103 -78
-215 -139 -324 -177 -89 -31 -95 -30 -108 7 -6 16 -12 28 -14 26 -3 -2 0 -16
6 -31 9 -24 7 -28 -16 -36 -14 -6 -39 -10 -55 -10 -16 0 -29 -4 -29 -10 0 -12
13 -12 62 -1 29 7 42 5 65 -10 38 -25 62 -26 40 -1 -24 26 -21 32 13 32 23 0
33 -6 39 -22 5 -13 7 -26 5 -30 -9 -15 -150 -38 -235 -38 -344 0 -735 290
-919 682 -93 198 -170 525 -170 719 0 34 -4 49 -16 53 -16 6 -191 -78 -339
-162 -76 -44 -100 -46 -45 -5 70 52 176 171 242 269 82 121 135 234 198 419
81 237 178 447 291 631 77 126 48 183 -131 262 -22 9 -20 11 27 11 107 2 299
51 463 118 409 169 735 424 1051 823 64 80 124 157 133 173 29 44 40 31 13
-15z m-3151 -124 c-3 -23 -1 -56 5 -72 8 -24 7 -37 -6 -62 -14 -27 -15 -40 -6
-74 20 -79 22 -103 10 -132 -7 -16 -11 -33 -9 -39 10 -37 15 -145 8 -167 -6
-16 -6 -34 0 -45 6 -10 7 -39 2 -68 -4 -27 -5 -52 -1 -55 4 -3 8 -39 9 -80 1
-41 7 -165 12 -275 24 -469 15 -657 -37 -847 -17 -60 -33 -76 -33 -34 0 13 -7
42 -15 66 -15 42 -57 309 -50 319 1 3 6 78 10 166 9 224 25 531 30 585 3 25 7
126 9 225 2 99 7 190 11 201 4 12 2 25 -4 28 -16 10 -13 98 5 141 14 35 14 40
-5 77 -17 36 -18 43 -5 73 8 19 14 50 14 69 0 23 6 38 17 45 27 15 36 2 29
-45z m10406 -517 c-12 -13 -22 -29 -22 -35 0 -6 -12 -19 -26 -28 -37 -25 -263
-271 -307 -334 -20 -30 -60 -86 -87 -124 -27 -38 -47 -72 -44 -77 3 -5 1 -9
-4 -9 -10 0 -144 -212 -161 -257 -7 -17 -11 -40 -9 -50 3 -14 9 -10 30 21 15
22 49 56 75 76 79 59 141 100 152 100 23 0 9 -18 -37 -48 -77 -50 -224 -208
-257 -277 -42 -89 -75 -227 -75 -317 0 -45 -4 -78 -10 -78 -5 0 -10 18 -10 39
0 22 -5 43 -11 47 -9 5 -11 -13 -7 -66 3 -40 11 -75 17 -79 14 -9 5 -37 -15
-45 -11 -4 -14 5 -15 37 0 37 -1 39 -10 18 -5 -14 -7 -36 -4 -50 3 -14 -1 -52
-10 -84 -8 -32 -15 -68 -15 -79 0 -17 -3 -19 -12 -10 -7 7 -13 38 -14 70 0 31
-6 80 -12 108 -7 32 -8 63 -2 80 17 58 33 130 37 169 2 22 12 56 22 75 10 19
23 56 30 82 19 80 79 218 144 331 90 160 319 457 465 604 34 35 62 67 62 71 0
10 154 152 159 146 2 -2 -5 -14 -17 -27z m-8860 -28 c49 -25 93 -27 527 -28
262 0 292 -2 281 -16 -7 -8 -19 -15 -28 -15 -8 0 -20 -7 -26 -16 -11 -14 -55
-16 -372 -18 -328 -1 -363 -3 -388 -19 -26 -18 -28 -18 -72 3 -38 19 -66 22
-206 26 -90 3 -201 7 -248 9 -47 2 -161 5 -255 6 -119 1 -158 4 -130 10 22 4
112 8 201 8 89 1 219 6 290 12 71 7 163 11 204 11 59 0 85 5 120 22 58 30 54
30 102 5z m7468 -43 c26 -16 55 -18 488 -33 95 -3 170 -9 167 -12 -3 -3 -142
-8 -308 -12 -326 -7 -359 -12 -392 -63 l-17 -25 -38 40 c-36 38 -39 39 -81 32
-24 -4 -57 -7 -74 -7 -16 0 -974 1 -2128 2 -1396 1 -2096 5 -2092 12 3 6 45
10 93 11 48 0 107 4 132 8 43 8 41 9 -30 11 -41 1 -85 1 -97 0 -17 -1 -21 3
-17 14 6 14 86 16 783 17 2018 1 3407 -1 3438 -7 30 -6 38 -2 71 33 l37 40 20
-22 c11 -13 31 -30 45 -39z m-4763 -10 c2 -2 -48 -13 -111 -25 -139 -26 -389
-30 -458 -7 -24 8 -62 17 -85 21 -24 4 -46 11 -49 17 -5 7 106 8 347 4 194 -4
354 -8 356 -10z m-5125 -396 c1 -5 26 -37 53 -70 32 -38 56 -58 67 -56 12 3
23 -9 37 -40 14 -29 27 -44 40 -44 22 0 51 -40 51 -69 0 -34 20 -65 53 -86 47
-29 48 -29 42 -2 -6 23 -4 25 15 20 12 -3 27 -14 33 -24 7 -11 17 -19 23 -19
18 0 37 -27 23 -32 -7 -2 -10 -11 -6 -21 3 -9 12 -14 20 -11 8 3 20 -2 27 -11
16 -20 33 -19 61 4 l23 18 -22 41 c-15 30 -17 40 -7 36 22 -9 87 -132 80 -153
-3 -11 3 -25 15 -36 25 -22 25 -31 3 -38 -10 -4 -28 -13 -39 -22 -21 -15 -23
-14 -54 35 -35 55 -44 55 -53 -2 -4 -28 0 -43 19 -69 13 -18 22 -35 19 -37 -8
-8 -45 30 -45 45 0 8 -5 11 -10 8 -7 -4 -5 -14 5 -28 30 -43 14 -39 -26 7 -22
25 -46 46 -52 46 -22 0 -66 66 -60 89 3 13 11 20 19 17 23 -9 24 9 2 45 -21
32 -22 33 -27 11 -6 -21 -11 -18 -75 43 -40 38 -62 65 -52 65 23 0 20 17 -8
45 -13 13 -34 38 -47 57 -12 18 -42 56 -64 83 -23 28 -44 57 -47 65 -3 8 -42
62 -87 119 -44 56 -81 106 -81 110 0 8 127 -125 132 -139z m1809 102 c-23 -33
-51 -58 -51 -47 0 14 50 75 61 75 6 0 1 -13 -10 -28z m-88 -112 c-21 -27 -62
-79 -90 -116 -29 -36 -53 -71 -53 -78 0 -7 -18 -27 -39 -44 -37 -30 -40 -36
-37 -76 1 -30 -1 -43 -9 -39 -18 6 -77 -65 -70 -86 3 -11 -3 -25 -15 -36 -14
-12 -19 -27 -16 -40 4 -16 -2 -25 -24 -38 -28 -17 -91 -95 -103 -129 -4 -10
-12 -18 -18 -18 -11 0 -9 14 7 55 7 20 7 20 -14 1 -12 -10 -24 -27 -27 -37
-11 -33 -24 -20 -14 13 5 18 9 38 9 45 0 19 -28 4 -36 -20 -5 -17 -8 -18 -15
-5 -5 8 -22 21 -39 28 -38 16 -38 26 1 66 17 18 37 43 43 56 8 16 20 23 41 23
17 0 36 4 42 8 23 15 111 154 110 173 -1 10 6 20 16 22 21 4 22 -16 2 -38 -8
-9 -18 -32 -21 -51 l-7 -34 46 44 c25 24 49 57 52 72 4 15 21 39 39 53 19 14
37 37 40 51 4 14 11 23 17 20 14 -9 39 14 32 31 -3 9 1 14 14 14 21 0 83 53
83 72 0 13 69 88 82 88 5 0 -9 -22 -29 -50z m5337 36 c0 -2 -15 -23 -34 -45
-46 -55 -80 -130 -102 -221 -15 -68 -17 -165 -21 -1010 -2 -514 -1 -949 2
-967 7 -42 50 -92 93 -110 l35 -14 -45 -47 c-59 -63 -139 -158 -170 -204 l-25
-38 -31 48 c-30 46 -164 182 -211 214 l-23 16 33 42 34 42 3 510 c2 429 0 514
-12 539 -13 25 -13 33 0 59 13 24 15 82 12 344 -3 300 -4 316 -24 343 -11 15
-35 35 -53 44 l-32 17 50 30 c27 17 114 86 193 154 119 102 315 258 325 258 2
0 3 -2 3 -4z m504 -48 c-24 -43 -57 -142 -68 -208 -3 -19 -6 -222 -7 -449 0
-228 -4 -422 -8 -430 -4 -9 -4 -35 -1 -59 l5 -43 110 126 c60 69 118 139 128
155 l19 30 77 -72 c77 -74 187 -157 235 -179 l26 -12 -27 -29 -28 -29 -5 -607
c-6 -593 -6 -609 -29 -687 -46 -163 -134 -316 -246 -430 -63 -63 -179 -155
-196 -155 -5 0 8 24 30 53 83 111 127 236 139 391 4 56 5 379 2 719 l-5 618
-60 58 -60 59 -54 -62 -53 -61 1 -465 c2 -516 1 -508 69 -540 l33 -16 -32 -29
c-39 -37 -157 -170 -184 -208 l-21 -28 -31 43 c-40 53 -114 132 -172 180 l-44
38 28 21 c55 44 55 46 55 581 0 396 -3 498 -14 519 -11 22 -11 30 0 50 10 19
13 97 14 344 0 360 -2 371 -72 410 l-37 21 62 41 c34 23 145 118 247 212 102
94 188 171 192 171 4 0 -4 -19 -18 -42z m4051 22 c3 -5 -7 -17 -22 -27 -15
-10 -32 -23 -38 -28 -25 -27 -49 -38 -121 -56 -94 -23 -91 -23 -69 1 10 11 26
20 35 20 10 0 23 7 30 16 17 19 75 44 105 44 12 0 30 9 40 20 20 22 31 25 40
10z m-8419 -667 c-2 -296 -4 -547 -4 -558 0 -11 2 -248 4 -527 4 -408 2 -508
-8 -508 -7 0 -52 41 -99 90 -175 184 -281 448 -310 775 -35 397 58 779 264
1090 48 72 135 175 148 175 6 0 8 -205 5 -537z m8079 518 c-3 -6 -14 -11 -23
-11 -15 1 -15 2 2 15 21 16 32 13 21 -4z m45 9 c-19 -13 -30 -13 -30 0 0 6 10
10 23 10 18 0 19 -2 7 -10z m-116 -19 c3 -4 -14 -14 -37 -21 -23 -8 -55 -20
-70 -28 -49 -23 -42 -5 9 27 48 30 88 39 98 22z m-209 -53 c-28 -22 -91 -36
-80 -18 3 6 14 10 24 10 10 0 24 7 31 15 7 8 22 15 33 15 17 0 17 -2 -8 -22z
m-10666 -72 c14 -15 19 -26 12 -30 -12 -8 -57 21 -65 42 -9 21 29 13 53 -12z
m1214 -8 c-13 -12 -26 -18 -30 -14 -4 4 1 14 11 22 31 22 43 17 19 -8z m4669
-156 c36 -59 99 -119 135 -128 32 -8 29 -16 -14 -39 -36 -19 -148 -142 -181
-197 -9 -16 -19 -28 -22 -28 -3 0 -22 27 -43 60 -41 62 -112 140 -129 140 -6
0 -23 -11 -40 -25 -28 -23 -48 -32 -48 -20 0 3 43 54 96 113 53 59 119 142
147 186 l52 78 7 -42 c4 -24 22 -68 40 -98z m4726 106 c-3 -7 -13 -15 -24 -17
-16 -3 -17 -1 -5 13 16 19 34 21 29 4z m232 -25 c0 -5 -24 -21 -54 -36 -30
-16 -62 -37 -72 -48 -17 -19 -16 -19 37 0 30 11 90 33 134 50 83 32 166 40
195 20 12 -8 9 -9 -12 -5 -16 4 -48 -2 -80 -14 -29 -11 -61 -20 -70 -20 -9 0
-19 -3 -21 -7 -3 -5 51 -8 119 -8 l124 0 32 -32 c35 -36 33 -53 -4 -30 -14 8
-53 15 -97 15 -60 2 -76 -1 -87 -16 -9 -13 -25 -16 -63 -15 -28 1 -53 -3 -57
-9 -5 -7 0 -9 14 -6 33 9 26 1 -17 -21 -40 -21 -134 -118 -180 -185 -22 -33
-25 -48 -23 -96 3 -38 -3 -77 -17 -120 -29 -87 -28 -171 3 -236 25 -53 77
-100 100 -91 8 3 16 -2 19 -13 3 -14 11 -17 27 -13 29 8 52 46 48 80 -2 23 -8
28 -30 28 -25 -1 -26 0 -11 17 15 17 17 17 29 0 13 -16 13 -16 14 1 0 26 148
-112 174 -162 12 -22 21 -64 24 -111 4 -65 0 -88 -27 -168 -21 -62 -46 -111
-72 -144 -21 -27 -39 -55 -39 -60 0 -13 -72 -109 -78 -104 -2 2 11 44 28 92
23 67 30 102 28 144 l-3 55 -29 -60 c-109 -225 -122 -247 -173 -298 -31 -31
-51 -58 -48 -67 3 -9 1 -30 -4 -48 -13 -42 -1 -47 50 -22 22 12 43 19 46 17
14 -14 -92 -119 -179 -177 -20 -13 -35 -27 -32 -29 3 -3 23 -4 46 -2 52 4 109
48 208 159 39 45 76 79 82 76 5 -4 -3 -20 -19 -38 -16 -17 -42 -49 -58 -71
-16 -22 -45 -55 -64 -72 -41 -39 -37 -55 5 -20 36 30 78 45 72 26 -2 -7 -13
-16 -24 -19 -26 -7 -108 -66 -159 -115 -70 -66 -76 -70 -85 -54 -6 9 2 19 27
34 46 25 51 40 16 41 -100 5 -218 -45 -263 -113 -31 -45 -26 -54 15 -27 13 9
30 14 36 12 7 -2 -4 -14 -23 -26 -43 -27 -113 -140 -138 -224 -10 -33 -3 -34
39 -10 21 12 29 22 25 35 -3 9 -1 17 5 17 5 0 12 -9 16 -19 3 -11 14 -22 23
-24 15 -3 14 -5 -3 -12 -11 -4 -28 -15 -39 -24 -10 -9 -20 -15 -22 -13 -10 6
-24 1 -24 -9 0 -6 7 -9 15 -5 62 24 -84 -128 -203 -211 -95 -65 -179 -110
-189 -99 -3 2 21 18 53 34 90 46 203 136 250 199 24 32 41 59 40 61 -2 1 -28
-8 -57 -22 -30 -14 -62 -27 -72 -30 -13 -4 -17 -12 -12 -28 5 -20 4 -21 -5 -6
-16 25 -39 22 -94 -12 -38 -25 -144 -82 -178 -98 -5 -2 -8 1 -8 6 0 5 18 22
40 37 42 29 48 45 10 25 -18 -10 -21 -9 -18 1 3 8 19 16 37 20 49 10 64 30 17
22 l-37 -6 16 39 c26 61 53 147 66 213 12 63 24 78 32 39 2 -13 5 -2 6 24 1
54 9 78 25 78 6 1 27 14 46 31 l35 30 -30 -7 -29 -7 37 50 c20 28 37 55 37 61
0 6 8 15 17 21 10 5 15 13 11 17 -4 4 -15 1 -24 -6 -9 -9 -18 -10 -22 -4 -4 5
-23 10 -43 9 -40 0 -42 12 -9 50 22 24 37 71 21 61 -6 -4 -11 -2 -11 3 0 21
-25 11 -62 -25 -37 -35 -48 -32 -28 7 8 15 7 19 -4 19 -10 0 -4 17 20 63 19
34 31 70 28 80 -8 24 25 72 92 137 46 45 56 50 50 30 -5 -14 -15 -29 -23 -35
-47 -30 -83 -69 -83 -91 0 -13 -7 -39 -15 -59 -8 -19 -22 -51 -31 -71 -22 -53
-2 -68 24 -18 11 22 38 59 59 84 22 25 38 50 36 57 -5 13 117 114 129 107 4
-3 1 -16 -8 -30 -9 -13 -14 -24 -11 -24 18 0 60 23 92 51 29 26 38 30 45 18
16 -25 87 57 136 156 24 50 44 101 44 112 0 12 5 33 11 47 7 15 8 36 4 53 -8
28 -8 28 -16 -12 -23 -118 -36 -160 -50 -158 -8 1 -27 -17 -43 -40 -17 -23
-38 -51 -47 -62 -10 -11 -30 -35 -45 -53 -14 -18 -28 -31 -31 -29 -2 3 9 33
25 68 38 85 42 103 43 206 1 107 18 92 26 -23 3 -41 9 -71 13 -67 20 23 44
135 44 203 -1 76 -16 122 -48 149 -14 11 -16 11 -18 -5 0 -11 0 -28 1 -38 1
-19 1 -19 -20 0 -12 10 -30 36 -40 56 -10 20 -29 44 -41 52 -12 9 -28 26 -35
38 l-12 23 0 -25 c-1 -47 18 -105 39 -122 14 -12 18 -22 12 -37 -7 -19 -10
-17 -44 25 -21 26 -40 61 -44 80 -8 42 23 231 42 259 12 17 13 11 8 -57 -7
-83 5 -131 37 -148 10 -6 19 -10 21 -10 2 0 3 48 4 108 1 160 62 375 135 477
17 24 28 48 25 54 -4 6 0 11 8 11 9 0 16 -2 16 -5 0 -3 -20 -45 -45 -93 -48
-92 -72 -176 -40 -137 9 11 30 46 46 78 16 31 32 57 35 57 3 0 2 -4 -1 -10 -3
-5 1 -10 9 -10 8 0 20 9 26 20 6 11 58 58 116 104 76 62 101 87 91 93 -8 4
-16 14 -18 21 -3 9 -14 7 -42 -8 -50 -27 -70 -20 -33 11 15 13 47 40 70 60 52
46 186 105 186 82z m-10055 -33 c-19 -38 -19 -50 2 -50 13 0 10 -7 -14 -32
-16 -18 -39 -48 -49 -65 -18 -33 -44 -44 -44 -20 0 7 6 21 13 32 18 26 28 65
16 65 -5 0 -15 -13 -24 -29 -19 -37 -35 -48 -27 -19 3 14 2 19 -6 14 -8 -5
-12 0 -12 14 0 11 6 20 13 18 12 -3 29 10 96 69 45 41 56 42 36 3z m9735 -11
c-73 -60 -122 -116 -158 -179 -23 -41 -38 -59 -40 -48 -4 22 12 52 62 112 65
77 93 107 128 132 44 33 51 19 8 -17z m-10120 -82 c0 -5 -7 -6 -16 -3 -14 5
-16 1 -10 -26 6 -35 0 -29 -30 25 -12 23 -13 31 -3 43 10 13 15 12 36 -7 12
-13 23 -27 23 -32z m10013 -77 c-15 -27 -29 -46 -31 -41 -3 9 46 91 55 91 2 0
-8 -22 -24 -50z m833 5 c3 -8 2 -21 -3 -30 -8 -14 -12 -13 -29 6 -10 12 -13
19 -6 15 14 -8 17 10 2 19 -5 3 -10 11 -10 16 0 14 40 -9 46 -26z m-326 -23
c0 -13 -12 -22 -22 -16 -10 6 -1 24 13 24 5 0 9 -4 9 -8z m-10716 -18 c20 -19
20 -34 1 -34 -16 0 -38 34 -28 44 9 8 9 8 27 -10z m186 -34 c0 -30 -4 -40 -16
-40 -27 0 -77 -41 -65 -53 6 -6 11 -18 11 -26 0 -8 21 -45 47 -82 25 -38 45
-71 42 -73 -2 -2 -31 9 -64 25 -33 16 -72 29 -87 29 -26 0 -78 -18 -88 -31 -8
-10 -70 -19 -70 -10 0 21 35 91 73 144 l41 58 24 -25 c23 -23 24 -25 8 -47
-28 -41 -21 -57 29 -61 25 -2 45 1 45 6 0 12 -51 107 -69 129 -9 11 -11 21 -5
27 12 12 124 70 135 70 5 0 9 -18 9 -40z m347 -3 c52 -31 53 -31 33 -52 -22
-23 -59 -102 -60 -126 0 -13 7 -14 53 -5 28 5 54 11 56 13 2 1 -4 14 -14 29
-16 25 -16 27 3 47 l20 20 34 -47 c18 -26 41 -68 51 -93 l18 -46 -37 6 c-21 4
-40 11 -44 17 -4 6 -38 12 -77 13 -63 2 -73 -1 -107 -27 -21 -15 -40 -26 -43
-23 -2 3 14 33 36 66 39 57 53 101 31 101 -5 0 -10 5 -10 10 0 6 8 10 17 10
14 0 13 4 -7 25 -13 13 -31 27 -42 31 -13 4 -18 15 -18 41 0 33 1 35 28 28 15
-3 51 -20 79 -38z m-951 -34 c16 -21 18 -33 5 -33 -15 0 -42 31 -36 41 9 13
16 11 31 -8z m1493 -9 c-17 -21 -31 -17 -19 6 6 11 15 18 21 14 6 -4 6 -11 -2
-20z m-1235 7 c4 -5 3 -16 0 -24 -5 -14 -8 -14 -24 1 -11 8 -17 19 -14 24 7
11 31 10 38 -1z m1176 -9 c0 -14 -24 -42 -46 -55 -12 -7 -39 -22 -60 -34 -22
-11 -50 -33 -63 -47 -24 -25 -49 -36 -36 -16 9 14 -2 12 -29 -5 -22 -15 -23
-14 -33 20 l-11 35 54 26 c34 16 61 23 72 18 37 -16 116 13 125 46 5 19 27 29
27 12z m9581 -30 c-35 -45 -59 -67 -66 -60 -7 7 74 98 87 98 5 0 -4 -17 -21
-38z m-10875 -12 c18 0 45 -5 60 -10 20 -8 29 -8 34 1 5 7 19 4 44 -13 19 -12
36 -27 36 -31 0 -5 -4 -5 -10 -2 -6 3 -7 -1 -4 -9 6 -16 -32 -39 -48 -29 -5 2
-8 -1 -8 -6 0 -6 4 -11 9 -11 5 0 12 -8 15 -17 3 -10 -12 1 -34 25 -23 23 -45
42 -51 42 -5 0 -12 6 -15 14 -3 8 -19 18 -34 21 -32 7 -80 41 -80 56 0 6 12 1
26 -10 15 -12 41 -21 60 -21z m1022 10 c-13 -20 -28 -27 -28 -12 0 10 22 32
32 32 5 0 3 -9 -4 -20z m9299 -22 c-3 -8 -6 -5 -6 6 -1 11 2 17 5 13 3 -3 4
-12 1 -19z m-5152 -38 c3 -5 2 -10 -4 -10 -5 0 -13 5 -16 10 -3 6 -2 10 4 10
5 0 13 -4 16 -10z m5615 -36 c0 -3 -9 -17 -20 -31 -22 -28 -28 -15 -8 17 12
19 28 27 28 14z m-5532 -96 c59 -88 145 -184 197 -219 19 -13 35 -26 35 -29 0
-3 -14 -13 -30 -22 -60 -34 -61 -39 -58 -578 3 -475 4 -489 24 -516 33 -45 48
-50 82 -26 16 12 33 22 36 22 18 0 -2 -29 -72 -103 -96 -100 -182 -204 -182
-219 0 -6 -10 2 -22 17 l-22 28 -8 -23 c-5 -13 -6 -38 -2 -56 7 -38 -10 -48
-20 -11 -3 12 -26 56 -50 97 -25 41 -46 83 -46 93 0 9 -3 17 -8 17 -4 0 -6 35
-4 78 3 68 2 75 -11 62 -37 -39 -234 -258 -253 -282 l-21 -26 -100 98 c-55 54
-126 115 -157 135 -31 21 -56 39 -56 41 0 2 11 15 25 29 14 16 27 45 30 68 3
23 5 252 3 509 -3 456 -3 467 -24 495 -27 37 -50 40 -80 12 -21 -20 -24 -20
-24 -5 0 10 46 66 103 124 56 59 118 128 136 155 19 26 37 47 40 47 3 0 22
-28 41 -62 19 -33 65 -92 102 -129 l67 -69 -24 -16 c-13 -8 -28 -29 -34 -46
-7 -20 -11 -190 -11 -496 0 -452 1 -466 21 -498 11 -18 39 -48 61 -66 l41 -32
60 65 59 64 0 472 c0 469 0 472 -22 502 -12 17 -24 31 -28 31 -4 0 -12 4 -19
8 -8 5 13 33 66 89 93 96 119 149 102 209 -21 77 -17 74 57 -38z m-5856 25
c83 -122 256 -266 417 -347 l52 -27 -23 -19 -23 -18 0 -460 c0 -424 1 -461 18
-479 9 -11 17 -22 17 -25 0 -4 -29 -22 -64 -42 -136 -76 -302 -219 -350 -301
l-18 -31 -81 81 c-45 44 -122 108 -172 141 -81 55 -107 68 -169 88 -18 6 -18
8 7 34 14 15 31 40 36 55 7 18 11 179 11 460 0 413 -1 434 -20 470 -25 46 -25
44 3 51 13 3 61 31 108 62 194 130 275 241 224 308 -14 19 -20 46 -10 46 2 0
19 -21 37 -47z m9748 -11 c0 -9 23 -42 51 -72 98 -105 102 -112 97 -183 l-4
-64 77 81 c41 45 109 118 150 164 69 77 75 81 89 64 42 -50 175 -151 329 -249
2 -1 -8 -16 -22 -33 -15 -17 -29 -45 -32 -63 -4 -18 -5 -257 -3 -532 2 -366 7
-507 16 -528 25 -57 97 -99 117 -67 3 6 10 10 16 10 19 0 7 -26 -30 -64 -58
-57 -90 -124 -107 -222 -37 -213 -147 -407 -333 -589 -67 -65 -79 -66 -27 -2
55 69 103 166 131 265 24 82 27 106 23 210 -4 136 -23 189 -100 281 -39 47
-45 59 -37 79 5 13 9 267 9 565 l0 541 -65 62 -64 63 -61 -67 -60 -67 0 -458
c0 -503 1 -509 60 -545 l31 -19 -61 -56 c-65 -58 -145 -155 -155 -188 -9 -28
-18 -24 -40 18 -25 47 -122 151 -175 188 l-41 28 38 39 38 39 3 487 c1 268 0
497 -3 509 -6 27 -53 83 -69 83 -7 0 -22 -9 -35 -21 -12 -12 -25 -19 -28 -16
-12 13 14 53 93 139 47 51 104 119 127 151 43 59 57 69 57 39z m-623 -145 c84
-64 217 -143 256 -152 32 -8 33 -12 10 -38 -17 -17 -18 -58 -21 -484 -2 -414
-1 -468 14 -490 8 -14 14 -26 12 -28 -2 -1 -41 -26 -88 -54 -126 -78 -225
-157 -285 -228 -30 -34 -58 -70 -63 -79 -8 -14 -17 -8 -56 34 -77 82 -272 222
-353 253 l-26 10 24 25 24 26 3 466 c3 454 2 467 -18 494 l-20 27 21 6 c77 25
319 223 381 312 l30 45 42 -45 c22 -25 73 -70 113 -100z m-2501 -23 l93 -92
-31 -28 c-16 -16 -34 -37 -39 -46 -5 -10 -11 -226 -13 -500 -4 -448 -3 -486
14 -525 19 -43 52 -69 73 -57 6 4 22 16 34 27 13 11 26 18 29 14 10 -10 -14
-41 -115 -152 -50 -55 -108 -123 -128 -152 -37 -51 -53 -64 -53 -42 0 31 -134
195 -204 247 l-28 22 31 29 c17 16 35 41 41 55 6 17 10 207 10 511 l0 484 -31
36 c-36 40 -47 42 -82 15 -14 -11 -28 -20 -31 -20 -18 0 30 59 153 186 l136
141 24 -31 c13 -17 66 -72 117 -122z m-5834 106 c2 -7 67 -14 160 -19 85 -5
161 -12 167 -15 21 -13 2 -23 -58 -30 -77 -9 -87 -24 -19 -28 53 -3 53 -3 23
-16 -26 -12 -220 -32 -320 -34 -22 0 -110 11 -195 25 -85 14 -198 31 -250 37
-170 21 -155 30 85 50 66 6 176 15 245 20 68 6 126 13 129 15 8 9 29 5 33 -5z
m1058 -15 c47 -2 132 -8 190 -14 58 -5 167 -13 243 -17 75 -3 137 -10 137 -14
0 -3 -78 -13 -172 -20 -95 -7 -191 -14 -213 -16 -55 -4 -187 -21 -265 -33 -37
-6 -121 -9 -195 -5 -92 4 -145 1 -180 -8 -47 -12 -50 -12 -72 10 -30 30 -29
32 11 32 18 0 39 6 45 14 9 11 -1 14 -55 19 -37 4 -69 9 -72 12 -18 17 34 28
174 36 87 5 160 12 163 15 4 4 44 3 91 -1 47 -4 123 -8 170 -10z m9539 -135
l0 -25 -15 28 c-9 16 -12 36 -9 45 6 15 8 15 15 -3 5 -11 9 -31 9 -45z
m-10199 -70 c2 -32 3 -30 12 18 5 28 13 52 17 52 4 0 13 -26 19 -57 29 -144
31 -329 12 -908 -21 -637 -24 -713 -24 -825 -1 -74 -6 -123 -14 -137 -10 -19
-10 -28 2 -51 10 -19 13 -51 10 -112 -3 -57 -1 -78 5 -65 5 11 10 30 10 42 1
12 21 40 46 64 27 26 45 52 45 65 0 13 5 26 10 29 6 3 10 11 10 16 0 6 -15 1
-34 -10 -58 -36 -61 -23 -13 48 39 59 144 174 132 146 -13 -32 -18 -115 -6
-115 10 0 15 13 26 69 6 28 41 118 51 130 1 1 8 0 14 -4 8 -5 8 -12 -2 -23
-26 -31 -37 -87 -37 -179 0 -102 -4 -114 -69 -190 -46 -55 -71 -69 -52 -31 8
16 0 11 -24 -14 -35 -36 -51 -78 -62 -153 l-5 -40 16 28 c9 16 18 27 20 25 2
-2 -2 -32 -10 -67 -11 -45 -12 -68 -4 -82 5 -11 9 -32 7 -47 l-3 -27 -18 32
c-9 18 -17 41 -17 53 0 30 -17 24 -23 -9 -4 -16 -9 -106 -13 -200 -5 -113 -11
-171 -18 -171 -6 0 -3 -5 7 -11 19 -11 23 -59 8 -87 -6 -11 -6 -37 0 -66 5
-29 5 -72 0 -105 -6 -37 -5 -60 1 -69 8 -9 8 -20 0 -37 -6 -13 -14 -94 -18
-180 -4 -85 -11 -155 -16 -155 -7 0 -11 71 -12 260 -1 30 -6 64 -13 76 -6 11
-8 25 -4 32 4 6 5 35 2 64 -4 29 -3 76 0 103 4 28 3 72 -2 99 -6 30 -6 53 0
59 5 5 5 22 0 40 -4 18 -10 66 -13 107 -6 96 -41 266 -67 327 -11 25 -22 74
-26 107 -3 36 -15 79 -29 105 -28 51 -31 69 -8 50 24 -20 74 -111 74 -136 0
-32 15 -28 30 7 12 28 11 36 -8 70 -27 48 -42 83 -37 88 3 3 6 3 8 1 39 -56
57 -87 57 -97 0 -7 5 -12 10 -12 9 0 14 14 11 33 -11 63 -9 91 5 119 14 27 14
35 3 52 -14 24 -20 286 -5 286 4 0 5 8 1 18 -4 9 -9 80 -11 157 -2 77 -6 164
-10 194 -6 43 -4 52 6 46 10 -6 11 1 6 31 -13 73 -24 318 -27 619 -5 345 4
492 34 570 l12 30 6 -30 c4 -16 8 -46 9 -65z m-141 71 c16 -10 3 -40 -31 -68
-54 -45 -89 -90 -82 -107 4 -10 13 -15 21 -12 8 4 32 -7 53 -24 21 -16 45 -30
53 -30 13 0 15 -8 10 -37 -3 -21 -7 -40 -9 -41 -6 -7 -132 60 -167 89 -34 28
-117 173 -117 204 0 9 26 15 88 20 48 3 98 7 112 9 49 6 55 6 69 -3z m545 -7
c9 -3 16 -14 16 -24 0 -20 -54 -126 -77 -152 -14 -16 -17 -15 -37 15 l-22 32
28 44 c15 24 25 47 23 51 -3 5 -20 8 -37 8 -33 0 -88 17 -88 27 0 7 175 6 194
-1z m-138 -141 c-8 -8 -56 43 -98 102 -11 17 8 2 43 -32 35 -34 59 -66 55 -70z
m9964 63 c20 -8 28 -16 21 -20 -15 -10 -48 2 -55 19 -7 18 -6 18 34 1z m-5770
-67 c6 -10 10 -201 10 -466 l0 -449 -39 -38 -38 -38 -37 32 -36 32 0 464 0
463 31 35 31 36 34 -27 c19 -14 39 -34 44 -44z m-3955 -39 c27 -28 27 -29 5
-23 -15 4 -21 2 -17 -4 5 -7 -1 -9 -15 -5 -21 5 -21 6 -3 12 18 6 17 8 -8 25
-15 9 -27 21 -27 25 0 16 38 -2 65 -30z m-222 2 c26 -27 26 -29 10 -44 -30
-25 -88 -57 -132 -73 l-41 -14 0 34 c0 19 5 35 10 35 6 0 16 11 22 25 6 14 17
24 23 21 7 -2 25 6 41 20 16 13 32 23 35 24 3 0 17 -13 32 -28z m210 -135 c15
-15 25 -32 22 -37 -3 -6 -23 7 -43 28 -20 21 -53 51 -72 66 l-35 28 50 -28
c28 -16 62 -41 78 -57z m135 64 c3 -8 -5 -10 -25 -5 -50 12 -61 24 -18 20 21
-1 41 -8 43 -15z m-1078 -5 c0 -3 -4 -8 -10 -11 -5 -3 -10 -1 -10 4 0 6 5 11
10 11 6 0 10 -2 10 -4z m737 -86 c-4 -35 -3 -62 3 -65 6 -3 10 3 10 14 0 36
17 23 24 -18 3 -22 10 -41 15 -43 5 -1 12 -18 16 -35 5 -28 4 -32 -9 -27 -21
8 -20 -5 2 -23 16 -14 16 -14 0 -9 -23 7 -42 -27 -32 -57 4 -12 20 -49 35 -81
32 -66 35 -76 17 -58 -17 17 -38 15 -38 -3 0 -8 -4 -15 -10 -15 -13 0 -13 6 0
30 8 15 4 31 -17 70 -16 27 -31 50 -35 50 -16 0 -8 -184 11 -240 18 -53 18
-125 0 -114 -5 3 -9 29 -9 59 0 37 -7 65 -21 90 -12 19 -18 42 -15 51 4 9 1
23 -5 31 -9 10 -9 17 -1 25 24 24 13 89 -28 169 -22 43 -40 81 -40 84 0 15 22
-10 40 -43 28 -55 24 -13 -6 57 -25 58 -26 62 -9 87 16 24 17 25 36 9 10 -10
21 -26 24 -36 12 -38 25 -17 25 41 0 38 4 60 11 60 8 0 10 -18 6 -60z m-526
-50 c5 0 15 14 24 30 18 34 27 37 49 14 20 -19 21 -13 -10 -68 -19 -35 -22
-45 -10 -40 9 3 16 1 16 -6 0 -6 5 -8 10 -5 6 3 10 14 10 24 0 10 8 25 18 32
14 11 15 11 5 -1 -7 -8 -13 -22 -13 -32 0 -10 -9 -32 -20 -50 -11 -18 -20 -41
-20 -50 0 -10 -4 -18 -10 -18 -5 0 -12 -17 -16 -37 -15 -89 -24 -99 -20 -23
l4 75 -34 -40 c-43 -48 -49 -71 -36 -132 6 -26 8 -50 6 -53 -9 -9 -44 44 -44
68 0 30 -16 28 -24 -3 -4 -14 -10 -23 -15 -21 -17 11 -5 66 21 93 57 61 72
108 72 232 l0 115 14 -52 c8 -29 18 -52 23 -52z m9985 25 c4 -14 4 -29 0 -32
-3 -4 -6 3 -6 13 0 11 -5 25 -12 32 -9 9 -9 12 0 12 6 0 14 -11 18 -25z
m-6652 -40 c30 -15 56 -35 58 -43 2 -8 1 -149 -2 -313 l-5 -298 -39 -40 c-72
-74 -222 -138 -361 -156 -55 -6 -220 18 -242 37 -11 9 -13 67 -11 299 2 158 6
291 10 294 4 4 14 0 23 -9 9 -9 19 -16 21 -16 3 0 18 29 33 64 34 75 82 126
153 162 89 45 127 54 220 50 72 -3 98 -9 142 -31z m-3401 -93 c-3 -12 -10 -22
-15 -22 -6 0 -7 7 -4 16 3 9 6 25 6 37 1 18 2 19 10 6 5 -8 6 -25 3 -37z m-57
-89 c-11 -11 -17 4 -9 23 7 18 8 18 11 1 2 -10 1 -21 -2 -24z m264 -230 c6
-109 13 -407 17 -663 7 -550 11 -529 -86 -436 -56 52 -101 72 -101 44 0 -7
-11 8 -25 34 -14 26 -25 59 -25 72 0 17 -15 41 -44 70 -90 91 -105 166 -67
321 16 63 27 85 50 106 18 15 34 39 38 60 3 19 17 58 30 87 13 29 23 64 23 78
0 13 7 35 14 47 8 12 18 54 22 92 5 57 18 93 67 194 45 92 62 119 69 107 5 -8
13 -104 18 -213z m-279 194 c-10 -9 -11 -8 -5 6 3 10 9 15 12 12 3 -3 0 -11
-7 -18z m574 -121 c14 -45 30 -109 36 -142 12 -68 41 -124 64 -124 8 0 15 4
15 9 0 13 27 21 45 15 10 -4 15 -20 15 -50 0 -50 30 -137 58 -168 28 -31 52
-101 52 -151 0 -64 -44 -183 -82 -222 -18 -19 -51 -38 -77 -46 -36 -10 -53
-24 -90 -71 -53 -67 -123 -122 -142 -111 -9 6 -11 77 -6 314 9 451 26 820 38
843 10 19 11 19 30 2 11 -9 30 -54 44 -98z m92 -48 c-3 -8 -6 -5 -6 6 -1 11 2
17 5 13 3 -3 4 -12 1 -19z m-567 3 c0 -20 -13 -41 -21 -35 -15 9 -10 44 6 44
8 0 15 -4 15 -9z m655 -51 c7 -23 -2 -43 -16 -35 -12 8 -12 55 0 55 5 0 12 -9
16 -20z m-673 -120 c-8 -22 -10 -20 -16 22 -5 32 -3 53 6 68 12 19 13 17 16
-23 2 -23 -1 -54 -6 -67z m10662 93 c4 -10 -3 -26 -20 -45 -32 -32 -44 -30
-20 4 9 12 16 30 16 40 0 23 16 23 24 1z m-9967 -49 c-9 -9 -28 6 -21 18 4 6
10 6 17 -1 6 -6 8 -13 4 -17z m42 -95 c-9 -5 -9 -18 0 -50 7 -24 15 -57 18
-72 l6 -29 -27 27 c-21 21 -26 35 -26 75 0 30 4 50 11 50 8 0 9 4 0 13 -6 8
-8 17 -4 21 4 4 13 -1 20 -10 10 -13 10 -20 2 -25z m-764 -36 c-4 -21 -16 -48
-28 -60 -21 -23 -38 -24 -19 -1 5 7 16 32 23 56 15 52 34 56 24 5z m-42 -130
c-8 -24 -24 -43 -34 -43 -14 0 -10 22 8 42 21 23 34 23 26 1z m892 -3 c13 11
17 7 30 -23 8 -20 15 -40 15 -45 0 -5 7 -15 15 -22 8 -7 15 -24 15 -39 -1 -14
1 -65 3 -113 2 -64 -1 -96 -12 -119 -17 -34 -50 -56 -38 -25 13 33 -13 15 -37
-27 -38 -65 -98 -116 -66 -57 10 19 9 19 -25 -1 -62 -37 -58 -15 9 44 65 57
93 110 67 127 -9 5 -9 14 -1 34 5 15 13 58 16 95 7 77 -7 135 -37 151 -28 16
-23 32 6 18 19 -8 28 -8 40 2z m-955 -100 c0 -5 -4 -10 -10 -10 -5 0 -10 5
-10 10 0 6 5 10 10 10 6 0 10 -4 10 -10z m-30 -76 c-11 -48 -30 -68 -30 -31 0
27 19 67 31 67 4 0 3 -16 -1 -36z m9430 -72 c0 -17 -123 -112 -144 -112 -12 0
-41 -16 -63 -35 -23 -19 -44 -35 -47 -35 -14 0 -104 -72 -129 -104 l-27 -35
72 30 c180 76 254 117 316 179 63 62 82 68 82 25 0 -30 -63 -83 -143 -120 -50
-24 -74 -46 -100 -92 -8 -13 30 -6 48 9 49 42 201 158 206 158 10 0 20 -81 18
-149 -2 -51 -6 -66 -28 -89 -14 -15 -22 -24 -16 -20 5 5 15 8 21 8 14 0 2 -56
-16 -74 -5 -5 -10 -18 -10 -28 0 -10 -15 -25 -32 -35 -25 -13 -29 -18 -15 -21
9 -2 17 -7 17 -12 0 -15 -61 -70 -72 -64 -5 3 -25 -10 -44 -30 -32 -34 -52
-48 -39 -26 3 6 0 10 -8 10 -7 0 -46 -31 -86 -69 l-73 -69 52 18 c28 10 64 26
78 37 49 36 55 38 43 15 -13 -25 -84 -83 -127 -105 -34 -17 -63 -47 -46 -47 6
0 14 5 17 10 10 17 23 11 18 -8 -2 -10 -21 -24 -41 -32 -20 -7 -49 -21 -63
-31 -14 -10 -48 -27 -75 -38 -27 -10 -70 -31 -96 -46 -32 -18 -52 -24 -63 -18
-12 7 -7 12 22 22 52 18 131 69 144 92 13 25 10 24 -63 -15 -35 -19 -84 -40
-111 -47 -43 -10 -73 -29 -48 -29 6 0 11 -5 11 -11 0 -9 -26 -10 -93 -5 -147
11 -197 -21 -76 -48 49 -11 46 -12 -70 -12 -117 1 -121 1 -87 16 39 17 81 64
71 81 -10 15 -92 49 -120 49 -13 0 -27 5 -31 11 -9 15 73 9 106 -8 43 -22 86
-16 122 16 27 24 31 32 21 42 -7 7 -13 21 -13 30 0 27 -95 69 -160 72 -30 1
-58 6 -62 11 -16 23 -263 -58 -305 -100 -13 -13 -29 -24 -35 -24 -6 0 10 20
35 45 26 25 52 45 57 45 5 0 12 5 15 10 4 6 -5 10 -20 10 -15 0 -24 -4 -20
-10 3 -6 -2 -13 -12 -16 -80 -27 -134 -56 -180 -98 -29 -26 -53 -43 -53 -37 0
6 9 16 20 23 11 7 20 17 20 21 0 13 -55 -29 -93 -71 -18 -20 -57 -62 -85 -93
-29 -31 -52 -61 -52 -68 0 -15 33 -7 75 20 17 10 45 25 63 33 17 8 32 20 32
25 0 6 8 11 18 11 9 0 41 11 70 25 89 41 83 28 -13 -26 -192 -110 -307 -189
-275 -189 23 0 123 40 141 56 17 15 29 18 29 6 0 -9 -12 -15 -115 -65 -68 -33
-87 -38 -123 -33 -32 4 -53 1 -80 -13 -77 -40 -148 -71 -162 -71 -8 0 -22 -5
-30 -11 -11 -7 -4 -8 25 -4 31 5 36 4 23 -5 -22 -14 -239 -22 -258 -10 -12 8
-11 10 5 10 15 0 16 3 7 9 -10 6 -5 11 17 21 17 7 31 19 31 26 0 8 4 14 9 14
16 0 22 32 9 48 -11 13 -9 14 21 10 25 -4 46 2 75 19 36 21 37 23 11 16 -37
-10 -159 -10 -280 0 -69 6 -84 5 -62 -4 15 -6 27 -15 27 -21 0 -6 -8 -7 -17
-3 -10 4 -61 10 -113 12 -52 3 -99 9 -105 13 -13 9 -155 -30 -155 -43 0 -6 26
-8 69 -4 91 8 100 -4 14 -19 -37 -7 -106 -20 -152 -28 -47 -9 -87 -14 -89 -11
-6 6 59 44 88 52 14 3 36 15 50 26 l25 19 -50 -7 c-28 -3 -62 -8 -75 -9 -39
-5 -113 -28 -135 -43 -11 -7 -27 -13 -36 -13 -9 0 -22 -6 -28 -14 -6 -7 -24
-16 -39 -20 -15 -3 -61 -35 -102 -72 -89 -78 -132 -104 -76 -45 46 48 236 182
316 223 30 16 65 37 77 47 12 10 53 28 92 41 73 23 95 37 41 25 -16 -4 -30 -4
-30 -2 0 7 54 24 123 37 31 6 55 16 52 21 -4 5 -3 9 2 9 4 1 51 5 104 9 102 9
192 4 183 -10 -3 -5 -13 -9 -23 -9 -10 0 -31 -6 -46 -14 l-28 -15 43 -11 c53
-14 303 -13 371 1 154 33 305 118 393 221 45 52 38 63 -10 17 -24 -22 -33 -27
-26 -13 6 11 18 27 27 34 9 7 23 27 32 44 23 44 137 159 214 217 37 27 70 49
74 49 4 0 29 13 54 28 98 60 197 82 354 81 128 -1 199 -9 204 -25 2 -7 -15 -9
-52 -6 -35 3 -55 1 -55 -6 0 -6 8 -13 18 -15 12 -3 10 -5 -6 -6 -13 0 -37 -15
-52 -32 -25 -26 -27 -31 -12 -35 9 -3 28 -10 41 -15 54 -22 144 -22 222 -1 80
22 159 66 159 89 0 19 -25 16 -78 -11 -49 -25 -145 -46 -127 -28 6 5 28 15 50
22 22 7 51 21 64 31 13 11 31 19 40 19 35 1 82 39 155 122 42 48 102 107 134
130 31 23 72 54 90 70 18 15 41 28 52 28 21 0 118 58 139 84 15 18 21 20 21 8z
m-9462 -29 c12 -12 13 -18 4 -21 -8 -2 -12 -25 -12 -63 l0 -59 66 -70 c37 -39
64 -73 60 -77 -3 -4 -20 6 -36 22 -17 16 -30 23 -30 17 0 -21 -17 -13 -55 26
-33 33 -36 41 -31 78 3 26 0 48 -8 59 -10 14 -11 28 -4 54 16 58 20 61 46 34z
m3308 -117 c12 -13 10 -17 -13 -34 -35 -25 -134 -74 -138 -70 -2 2 -1 8 3 14
8 12 122 104 129 104 2 0 11 -6 19 -14z m7054 -26 c0 -5 -7 -10 -15 -10 -8 0
-15 5 -15 10 0 6 7 10 15 10 8 0 15 -4 15 -10z m-10224 -260 c17 -15 19 -43 2
-38 -25 8 -42 53 -32 84 l8 29 4 -32 c2 -17 10 -37 18 -43z m166 -117 c-7 -23
-19 -14 -26 18 -11 54 -6 65 13 29 9 -19 15 -41 13 -47z m3223 -30 l70 -7 -55
-7 c-30 -4 -82 -7 -114 -8 -90 -2 -61 -11 50 -17 95 -5 113 -8 102 -19 -4 -4
-1578 -4 -1733 0 -33 1 -213 8 -400 16 -352 14 -371 24 -60 29 83 1 197 6 255
10 140 9 1796 12 1885 3z m3595 -2 c0 -15 -28 -21 -98 -23 -37 0 -51 -3 -32
-5 68 -7 100 -14 100 -23 0 -6 -561 -10 -1520 -10 -1007 0 -1520 3 -1520 10 0
6 26 11 58 11 31 1 64 3 72 4 8 1 44 3 80 5 46 2 53 4 25 7 -22 1 -74 6 -115
10 -68 6 -71 8 -35 13 64 11 2985 11 2985 1z m784 0 c9 -14 -32 -21 -134 -22
-71 0 -88 -3 -66 -9 16 -5 33 -7 38 -4 13 8 98 -7 92 -17 -3 -5 -151 -9 -330
-9 -214 0 -323 3 -319 10 3 6 45 10 93 11 48 0 110 4 137 9 42 6 32 8 -59 9
-123 1 -137 18 -21 23 175 8 564 7 569 -1z m-3817 -7 c-3 -3 -12 -4 -19 -1 -8
3 -5 6 6 6 11 1 17 -2 13 -5z m51 -21 c-10 -2 -28 -2 -40 0 -13 2 -5 4 17 4
22 1 32 -1 23 -4z m5652 -1 c0 -5 -30 -19 -67 -32 -103 -35 -99 -35 -87 -21 6
6 42 23 80 36 80 29 74 27 74 17z m-2653 -18 c-3 -3 -12 -4 -19 -1 -8 3 -5 6
6 6 11 1 17 -2 13 -5z m1251 -253 c9 -6 35 -13 57 -17 58 -11 8 -18 -64 -9
-51 6 -54 8 -36 21 22 17 21 16 43 5z m-8033 -12 c12 -18 -3 -22 -20 -5 -14
14 -14 16 -1 16 8 0 18 -5 21 -11z m8015 -38 c-8 -5 -55 -11 -105 -13 -84 -5
-87 -5 -50 7 44 15 180 20 155 6z m-235 -41 c-3 -5 -14 -10 -23 -10 -15 0 -15
2 -2 10 20 13 33 13 25 0z m-1108 -24 c37 -8 79 -20 93 -26 20 -8 15 -9 -30
-4 -183 20 -222 23 -285 23 -42 1 -101 -7 -145 -19 -150 -42 -407 -189 -421
-243 -3 -12 -11 -21 -17 -20 -6 2 -23 -12 -38 -30 -15 -17 -47 -50 -72 -72
l-46 -40 24 45 c30 54 154 178 230 230 97 66 238 127 365 158 63 15 265 14
342 -2z m1033 -1 c-7 -9 -15 -13 -17 -11 -7 7 7 26 19 26 6 0 6 -6 -2 -15z
m1155 -85 c-10 -11 -25 -20 -34 -20 -12 1 -10 5 8 20 30 26 49 26 26 0z
m-8609 -57 c-3 -10 -8 -30 -12 -45 -6 -28 -24 -39 -24 -16 0 21 24 78 33 78 4
0 6 -8 3 -17z m8464 -15 c-1 -17 -78 -70 -91 -63 -5 4 10 21 33 40 47 37 58
41 58 23z m-335 -58 c-8 -13 -65 -43 -71 -37 -2 2 13 13 34 24 45 26 45 26 37
13z m-1627 -68 c2 -7 -2 -10 -12 -6 -9 3 -16 11 -16 16 0 13 23 5 28 -10z
m1838 9 c-10 -16 -149 -106 -191 -124 -53 -22 -123 -39 -134 -33 -4 3 -31 -3
-60 -13 -28 -11 -51 -16 -51 -12 0 9 38 44 65 60 17 10 15 11 -15 5 -43 -8
-52 -13 -45 -25 4 -5 -5 -9 -19 -9 -35 0 -135 -27 -152 -41 -8 -6 -12 -15 -9
-19 7 -11 -14 -24 -40 -27 -11 0 -31 -4 -45 -8 l-25 -6 23 18 c13 10 46 36 74
58 27 22 73 54 102 70 45 27 60 30 121 29 85 -1 144 11 208 43 27 13 52 21 55
18 4 -4 -1 -11 -12 -17 -10 -6 -32 -23 -50 -39 -24 -22 -27 -28 -13 -29 28 0
77 24 141 68 57 40 84 52 72 33z m-1156 -41 c0 -5 -6 -10 -12 -10 -7 0 -35
-12 -63 -25 -27 -13 -51 -22 -54 -19 -9 9 24 33 64 48 48 18 65 19 65 6z
m-1290 -40 c0 -11 -39 -29 -80 -37 -13 -2 -30 -9 -36 -14 -8 -6 -14 -6 -18 0
-6 9 39 41 74 54 26 9 60 7 60 -3z m940 -5 c-7 -8 -20 -15 -29 -15 -11 1 -8 5
9 15 32 18 35 18 20 0z m-1090 -19 c0 -2 -8 -10 -17 -17 -16 -13 -17 -12 -4 4
13 16 21 21 21 13z m1235 -26 c-3 -5 -11 -10 -16 -10 -6 0 -7 5 -4 10 3 6 11
10 16 10 6 0 7 -4 4 -10z m-301 -10 c-26 -26 -247 -51 -267 -30 -9 10 -7 11
10 6 12 -4 39 -2 60 5 21 7 72 15 113 19 41 4 79 7 85 8 5 1 5 -2 -1 -8z
m-979 -10 c-3 -5 -14 -10 -23 -10 -15 0 -15 2 -2 10 20 13 33 13 25 0z m1245
-4 c0 -2 -16 -13 -35 -25 -24 -14 -35 -16 -35 -8 0 7 12 18 28 24 31 12 42 15
42 9z m-170 -44 c0 -8 -76 -49 -125 -67 -17 -7 -18 -9 -3 -12 14 -4 63 13 157
54 10 4 12 2 6 -7 -12 -20 -125 -67 -189 -79 -64 -12 -130 -6 -161 15 -11 8
-34 14 -51 14 -18 0 -42 9 -55 20 -29 24 -22 24 47 4 66 -19 145 -9 274 34
100 34 100 34 100 24z m-990 -22 c0 -5 -6 -10 -12 -10 -7 0 -26 -7 -42 -15
-20 -11 -33 -12 -40 -5 -7 7 -4 10 10 10 10 0 28 7 38 15 23 17 46 20 46 5z
m-393 -68 c-21 -21 -64 -59 -97 -83 -33 -24 -59 -49 -60 -55 0 -14 -38 -25
-95 -28 -22 -2 -52 -6 -67 -11 -19 -5 -28 -3 -28 4 0 6 9 11 20 11 30 0 168
57 214 89 22 16 61 47 86 69 57 52 76 54 27 4z m238 27 c-7 -11 -14 -14 -125
-56 -91 -34 -56 -3 40 35 83 34 94 37 85 21z m-652 -186 c-7 -2 -19 -2 -25 0
-7 3 -2 5 12 5 14 0 19 -2 13 -5z m-5083 -414 c0 -44 -4 -68 -10 -64 -5 3 -10
35 -10 71 0 36 4 64 10 64 6 0 10 -30 10 -71z"/>
<path d="M13910 5950 c-9 -63 -4 -88 27 -135 18 -27 33 -59 33 -70 0 -22 33
-65 50 -65 4 0 23 -12 42 -27 28 -23 27 -20 -9 18 -54 57 -114 169 -129 239
-7 30 -13 48 -14 40z"/>
<path d="M14595 5147 c-135 -82 -165 -102 -165 -109 0 -4 30 13 68 38 72 47
78 49 87 34 11 -17 35 -11 35 10 0 10 6 23 13 27 13 9 42 43 36 43 -2 0 -35
-19 -74 -43z"/>
<path d="M14020 5102 c0 -5 7 -17 15 -28 14 -19 14 -19 15 2 0 12 -7 24 -15
28 -8 3 -15 2 -15 -2z"/>
<path d="M13021 5006 c-209 -250 -341 -593 -358 -931 -5 -93 -10 -123 -22
-132 -14 -11 -14 -12 2 -13 15 0 17 -12 18 -97 0 -54 4 -118 9 -143 5 -28 7
30 4 150 -4 207 10 347 48 485 10 39 23 86 28 105 39 156 146 386 203 442 22
21 37 41 34 44 -8 9 16 55 41 77 13 12 22 15 27 7 7 -12 25 -4 25 11 0 6 -4 7
-10 4 -5 -3 -10 1 -10 9 0 8 4 18 10 21 11 7 33 45 26 45 -3 0 -36 -38 -75
-84z"/>
<path d="M12680 5040 c0 -5 5 -10 10 -10 6 0 10 5 10 10 0 6 -4 10 -10 10 -5
0 -10 -4 -10 -10z"/>
<path d="M14317 4958 c-42 -35 -76 -66 -77 -71 0 -4 35 21 78 55 100 79 98 78
86 78 -6 0 -45 -28 -87 -62z"/>
<path d="M12224 3858 c-5 -7 -9 -19 -11 -27 -1 -8 -11 -27 -22 -42 -20 -26
-19 -39 4 -39 12 0 52 107 43 116 -3 3 -10 -1 -14 -8z"/>
<path d="M14451 3749 c-6 -18 -11 -50 -10 -73 l1 -41 9 43 c10 52 17 64 31 56
8 -5 9 -1 5 10 -4 10 -7 22 -7 27 0 21 -19 7 -29 -22z"/>
<path d="M13914 3751 c4 -6 15 -15 26 -21 15 -8 18 -6 16 8 -2 9 -13 19 -26
20 -14 2 -20 0 -16 -7z"/>
<path d="M13690 3746 c0 -2 7 -6 15 -10 8 -3 15 -1 15 4 0 6 -7 10 -15 10 -8
0 -15 -2 -15 -4z"/>
<path d="M13291 3384 c0 -11 3 -14 6 -6 3 7 2 16 -1 19 -3 4 -6 -2 -5 -13z"/>
<path d="M14442 3220 c0 -19 2 -27 5 -17 2 9 2 25 0 35 -3 9 -5 1 -5 -18z"/>
<path d="M13000 2937 c0 -2 14 -16 30 -32 17 -16 30 -24 30 -19 0 6 -13 20
-30 32 -16 13 -30 21 -30 19z"/>
<path d="M14441 2870 c-4 -97 -2 -111 16 -132 24 -27 33 -21 22 15 -6 17 -12
37 -13 42 -2 6 -6 17 -9 25 -4 8 -8 40 -10 70 -3 50 -4 49 -6 -20z"/>
<path d="M13085 2870 c27 -12 43 -12 25 0 -8 5 -22 9 -30 9 -10 0 -8 -3 5 -9z"/>
<path d="M13979 2753 c-13 -16 -12 -17 4 -4 9 7 17 15 17 17 0 8 -8 3 -21 -13z"/>
<path d="M13292 2702 c2 -4 10 -19 17 -34 14 -27 31 -37 31 -19 0 5 2 15 5 23
3 8 -6 18 -25 25 -17 6 -30 9 -28 5z"/>
<path d="M12658 2629 c3 -27 9 -39 20 -39 12 0 13 3 4 12 -17 17 -15 33 3 18
9 -7 13 -21 10 -31 -6 -17 -2 -19 29 -17 l35 3 -27 28 c-15 16 -38 37 -52 47
l-25 18 3 -39z"/>
<path d="M13486 2651 c-3 -5 6 -16 20 -26 26 -17 41 -15 29 4 -10 17 -43 32
-49 22z"/>
<path d="M14472 2627 c-12 -12 -29 -43 -38 -67 -17 -47 -66 -271 -60 -277 1
-2 13 35 25 81 12 46 29 92 36 103 8 10 15 28 15 41 0 13 16 50 35 83 35 61
29 80 -13 36z"/>
<path d="M13330 2551 c0 -6 5 -13 10 -16 6 -3 10 1 10 9 0 9 -4 16 -10 16 -5
0 -10 -4 -10 -9z"/>
<path d="M12837 2499 c-4 -16 0 -19 22 -17 28 2 54 -9 47 -20 -2 -4 7 -8 20
-8 13 -1 24 0 24 1 0 2 -24 17 -54 33 -51 27 -55 28 -59 11z"/>
<path d="M13095 2395 c17 -8 41 -14 55 -14 l25 1 -25 7 c-14 4 -38 11 -55 14
l-30 6 30 -14z"/>
<path d="M13188 2373 c6 -2 18 -2 25 0 6 3 1 5 -13 5 -14 0 -19 -2 -12 -5z"/>
<path d="M14270 2012 c-18 -42 -46 -101 -63 -130 -16 -29 -27 -55 -24 -58 6
-6 68 114 101 195 37 91 26 86 -14 -7z"/>
<path d="M14140 1760 c-6 -11 -8 -20 -6 -20 3 0 10 9 16 20 6 11 8 20 6 20 -3
0 -10 -9 -16 -20z"/>
<path d="M14113 1718 c-15 -20 -25 -38 -20 -38 3 0 12 11 21 25 17 26 16 35
-1 13z"/>
<path d="M12278 5553 c7 -3 16 -2 19 1 4 3 -2 6 -13 5 -11 0 -14 -3 -6 -6z"/>
<path d="M19738 5518 c34 -6 62 -6 80 0 22 8 12 10 -53 10 l-80 0 53 -10z"/>
<path d="M19930 5526 c0 -10 28 -13 41 -5 10 6 7 9 -13 9 -16 0 -28 -2 -28 -4z"/>
<path d="M14843 5533 c9 -2 23 -2 30 0 6 3 -1 5 -18 5 -16 0 -22 -2 -12 -5z"/>
<path d="M14938 5533 c7 -3 16 -2 19 1 4 3 -2 6 -13 5 -11 0 -14 -3 -6 -6z"/>
<path d="M11396 4712 c-4 -7 -5 -16 -2 -19 3 -3 -1 -21 -9 -40 -10 -24 -11
-33 -3 -31 14 5 31 62 26 86 -3 13 -5 14 -12 4z"/>
<path d="M21115 4586 c-38 -17 -79 -61 -70 -75 7 -12 32 3 95 58 37 32 26 40
-25 17z"/>
<path d="M20929 4234 c-6 -16 -14 -65 -16 -109 -4 -83 13 -143 45 -153 11 -3
12 0 4 14 -5 11 -10 75 -11 143 0 68 -3 126 -6 129 -2 3 -10 -8 -16 -24z"/>
<path d="M20710 4195 c-6 -19 -10 -42 -8 -52 2 -9 10 7 20 35 9 29 12 52 8 52
-5 0 -14 -16 -20 -35z"/>
<path d="M21314 3844 c16 -40 27 -183 20 -254 -6 -65 -5 -73 8 -63 42 35 49
229 12 294 -22 37 -52 54 -40 23z"/>
<path d="M21112 3770 c0 -19 2 -27 5 -17 2 9 2 25 0 35 -3 9 -5 1 -5 -18z"/>
<path d="M20801 3763 c7 -12 15 -20 18 -17 3 2 -3 12 -13 22 -17 16 -18 16 -5
-5z"/>
<path d="M21050 3736 c0 -8 5 -18 10 -21 6 -3 10 3 10 14 0 12 -4 21 -10 21
-5 0 -10 -6 -10 -14z"/>
<path d="M21090 3333 c0 -10 -11 -36 -23 -58 -47 -81 -46 -102 1 -27 32 52 48
102 32 102 -5 0 -10 -8 -10 -17z"/>
<path d="M20900 3113 c-30 -32 -57 -57 -62 -55 -5 1 -7 -2 -3 -8 3 -5 -1 -10
-10 -10 -9 0 -31 -16 -51 -35 -34 -34 -52 -45 -39 -25 10 16 -11 12 -25 -5 -7
-8 -16 -13 -20 -10 -4 3 -15 -7 -24 -20 -9 -14 -21 -23 -26 -20 -13 8 -133
-88 -150 -119 -7 -14 -24 -33 -37 -41 -12 -9 -23 -21 -23 -27 0 -9 3 -9 11 -1
6 6 17 9 24 7 7 -3 51 30 97 74 47 44 96 85 109 92 l24 13 -24 -27 c-30 -32
-13 -35 20 -3 13 12 71 65 127 117 101 91 149 146 139 156 -2 3 -28 -21 -57
-53z m-310 -257 c0 -2 -8 -10 -17 -17 -16 -13 -17 -12 -4 4 13 16 21 21 21 13z"/>
<path d="M20543 3020 c-24 -21 -43 -45 -43 -51 0 -15 43 24 72 64 26 36 21 34
-29 -13z"/>
<path d="M20935 3030 c-3 -11 -23 -34 -43 -51 -20 -17 -29 -29 -19 -25 10 3
22 6 26 6 16 0 61 53 61 71 0 25 -17 24 -25 -1z"/>
<path d="M20390 2974 c-20 -41 -21 -47 -7 -61 13 -14 17 -12 33 13 10 16 24
34 31 41 12 9 12 15 1 32 -20 32 -34 26 -58 -25z"/>
<path d="M20590 2629 c0 -5 5 -7 10 -4 6 3 10 8 10 11 0 2 -4 4 -10 4 -5 0
-10 -5 -10 -11z"/>
<path d="M20573 2569 c-21 -27 -43 -78 -43 -101 0 -16 9 -5 30 36 29 57 36 93
13 65z"/>
<path d="M20375 2320 c-16 -16 -24 -30 -18 -30 10 0 34 24 47 48 12 20 2 14
-29 -18z"/>
<path d="M11365 4380 c-3 -5 1 -10 9 -10 8 0 18 5 21 10 3 6 -1 10 -9 10 -8 0
-18 -4 -21 -10z"/>
<path d="M10360 4390 c0 -5 5 -10 10 -10 6 0 10 5 10 10 0 6 -4 10 -10 10 -5
0 -10 -4 -10 -10z"/>
<path d="M9608 3466 c3 -345 7 -495 15 -504 6 -8 38 -34 72 -60 33 -25 75 -59
93 -76 l32 -30 0 490 0 490 -87 75 c-48 41 -96 81 -108 90 l-20 17 3 -492z
m123 315 l49 -48 0 -411 c0 -226 -4 -413 -8 -416 -4 -2 -30 13 -57 34 -46 36
-51 44 -57 92 -15 128 -3 798 15 798 5 0 32 -22 58 -49z"/>
<path d="M18548 3483 l2 -488 53 -47 c31 -28 51 -53 49 -63 -2 -10 1 -14 6
-11 5 3 27 -8 48 -25 65 -51 64 -59 64 477 l0 473 -107 85 c-60 47 -110 86
-113 86 -3 0 -4 -219 -2 -487z m121 331 l51 -46 0 -429 c0 -236 -3 -429 -7
-429 -5 0 -34 25 -65 55 l-58 55 0 413 c0 228 3 417 7 420 12 12 20 8 72 -39z"/>
<path d="M10870 3660 c0 -57 2 -101 5 -99 7 8 8 189 1 196 -3 4 -6 -40 -6 -97z"/>
<path d="M10872 3420 c0 -14 2 -19 5 -12 2 6 2 18 0 25 -3 6 -5 1 -5 -13z"/>
<path d="M10872 3250 c0 -14 2 -19 5 -12 2 6 2 18 0 25 -3 6 -5 1 -5 -13z"/>
<path d="M11073 2238 c-20 -26 -26 -41 -15 -34 12 7 36 46 29 46 -3 0 -9 -6
-14 -12z"/>
<path d="M10860 2232 c0 -12 19 -26 26 -19 2 2 -2 10 -11 17 -9 8 -15 8 -15 2z"/>
<path d="M11055 2130 c-19 -37 -20 -91 -1 -84 18 7 36 49 36 84 0 38 -15 38
-35 0z"/>
<path d="M10680 4030 c-8 -5 -43 -10 -77 -10 l-61 0 15 -32 c9 -18 22 -41 30
-50 13 -14 12 -19 -7 -38 -12 -12 -19 -25 -15 -28 4 -4 19 9 34 28 14 19 40
48 57 65 51 48 67 93 24 65z"/>
<path d="M11172 3578 c-16 -16 -15 -38 2 -38 20 0 29 17 19 35 -7 12 -12 12
-21 3z"/>
<path d="M10656 3555 c-3 -8 -1 -15 4 -15 6 0 10 7 10 15 0 8 -2 15 -4 15 -2
0 -6 -7 -10 -15z"/>
<path d="M19810 2165 c-7 -8 -18 -15 -24 -15 -6 0 -19 -12 -29 -25 -10 -14
-14 -25 -10 -25 8 0 83 68 83 76 0 8 -8 4 -20 -11z"/>
<path d="M18640 2146 c-96 -29 -174 -60 -191 -75 -8 -6 -36 -26 -64 -44 -56
-36 -159 -134 -195 -186 -27 -40 -23 -38 85 39 81 58 156 101 210 120 20 8 25
14 17 19 -8 5 10 14 48 26 33 10 60 21 60 25 0 4 16 11 35 14 20 4 33 11 30
15 -7 12 20 22 90 32 33 5 79 12 102 15 72 11 37 24 -60 23 -66 0 -113 -7
-167 -23z"/>
<path d="M19366 2025 c-3 -8 -1 -15 3 -15 5 0 11 7 15 15 3 8 1 15 -3 15 -5 0
-11 -7 -15 -15z"/>
<path d="M19025 1810 c3 -5 13 -10 21 -10 8 0 14 -4 14 -9 0 -20 26 -17 48 5
l23 24 -56 0 c-35 0 -54 -4 -50 -10z"/>
<path d="M19475 1800 c-3 -5 1 -10 9 -10 8 0 18 5 21 10 3 6 -1 10 -9 10 -8 0
-18 -4 -21 -10z"/>
<path d="M17970 1407 c-36 -17 -81 -49 -77 -54 3 -2 18 4 36 14 27 16 33 16
41 3 8 -13 13 -12 36 6 15 11 28 24 28 29 1 15 -35 15 -64 2z"/>
<path d="M15338 2003 c23 -2 61 -2 85 0 23 2 4 4 -43 4 -47 0 -66 -2 -42 -4z"/>
<path d="M15572 2003 c59 -2 158 -2 220 0 62 1 14 3 -107 3 -121 0 -172 -2
-113 -3z"/>
<path d="M15968 2003 c7 -3 16 -2 19 1 4 3 -2 6 -13 5 -11 0 -14 -3 -6 -6z"/>
<path d="M16143 2003 c15 -2 39 -2 55 0 15 2 2 4 -28 4 -30 0 -43 -2 -27 -4z"/>
<path d="M16393 2003 c9 -2 23 -2 30 0 6 3 -1 5 -18 5 -16 0 -22 -2 -12 -5z"/>
<path d="M16583 2003 c70 -2 184 -2 255 0 70 1 12 3 -128 3 -140 0 -198 -2
-127 -3z"/>
<path d="M17053 2003 c37 -2 97 -2 135 0 37 2 6 3 -68 3 -74 0 -105 -1 -67 -3z"/>
<path d="M18995 1240 c-16 -7 -17 -9 -3 -9 9 -1 20 4 23 9 7 11 7 11 -20 0z"/>
<path d="M2902 6660 c-45 -19 -99 -62 -236 -194 -217 -207 -348 -307 -506
-386 -129 -65 -244 -106 -360 -129 -138 -26 -185 -30 -505 -41 -197 -6 -300
-14 -381 -29 -309 -57 -616 -223 -752 -406 -54 -73 -95 -157 -90 -187 3 -21
12 -15 89 54 143 127 245 182 437 236 90 25 111 27 287 27 177 0 197 -2 288
-28 174 -48 363 -162 403 -243 17 -35 19 -66 22 -299 1 -144 -2 -266 -7 -274
-7 -11 -24 -7 -92 22 -394 166 -633 244 -763 249 -77 3 -97 -11 -49 -38 285
-157 375 -213 498 -314 223 -184 362 -371 410 -555 19 -76 20 -214 1 -260 -18
-43 -47 -46 -138 -12 -97 37 -126 45 -132 39 -20 -19 4 -58 103 -164 142 -152
163 -194 169 -333 2 -57 1 -134 -3 -172 -7 -60 -9 -65 -17 -40 -5 15 -13 27
-18 27 -10 0 -40 75 -40 102 0 11 -15 35 -34 53 -19 17 -44 51 -56 76 -13 24
-41 68 -64 99 -22 30 -53 73 -67 95 -14 22 -64 81 -111 130 -68 72 -107 102
-189 150 l-103 59 -123 7 c-113 7 -127 10 -180 40 -69 38 -113 84 -152 160
-16 30 -37 61 -46 69 -42 35 -98 185 -124 333 -11 64 -24 76 -47 42 -15 -23
-16 -43 -11 -161 5 -96 11 -142 22 -157 9 -12 15 -43 15 -73 0 -58 57 -196
113 -272 83 -112 109 -141 150 -168 25 -16 52 -44 61 -61 10 -21 23 -33 36
-33 25 0 92 -67 88 -88 -2 -13 -16 -18 -52 -20 -62 -4 -132 18 -218 69 -36 21
-73 39 -80 39 -7 0 -19 9 -26 20 -7 11 -21 20 -31 20 -11 0 -41 16 -68 36 -61
47 -60 46 -45 51 9 4 3 14 -19 33 -20 16 -43 52 -59 90 -14 35 -30 65 -36 67
-21 7 -35 -88 -25 -167 14 -102 31 -151 85 -245 25 -44 46 -85 46 -90 0 -6 16
-42 36 -80 44 -84 151 -197 214 -226 25 -11 59 -27 75 -34 17 -8 73 -24 125
-36 140 -31 212 -47 243 -55 17 -4 27 -2 27 5 0 18 29 13 63 -11 45 -31 48
-38 42 -81 -6 -44 13 -87 47 -105 12 -7 41 -47 63 -90 22 -42 43 -78 48 -80
15 -7 6 -21 -26 -41 -29 -18 -38 -19 -65 -9 -24 9 -31 17 -26 30 4 14 -3 22
-28 32 -38 17 -52 11 -24 -10 11 -7 16 -17 13 -21 -4 -4 -13 -1 -19 5 -7 7
-16 12 -22 12 -15 0 35 -50 66 -66 16 -8 28 -19 28 -25 0 -5 -20 -31 -44 -57
-53 -57 -126 -168 -156 -239 l-22 -52 -23 27 c-12 15 -25 39 -29 54 -4 19 -19
34 -46 48 -22 11 -40 25 -40 30 0 6 -19 31 -42 56 -43 47 -131 96 -155 87 -20
-8 -16 -71 8 -121 26 -54 75 -86 155 -105 47 -10 74 -24 113 -58 l52 -44 -4
-65 c-5 -81 8 -181 29 -223 43 -84 140 -174 199 -184 29 -5 35 -3 35 13 0 10
-13 32 -29 49 -55 57 -81 120 -81 198 0 89 14 133 59 193 151 200 441 227 706
67 92 -55 142 -99 207 -181 140 -177 189 -353 203 -737 9 -249 36 -455 65
-488 9 -11 26 74 45 223 32 258 113 527 212 710 62 114 31 105 350 104 190 -1
291 -5 319 -14 26 -8 60 -10 95 -5 76 10 5569 17 5753 7 114 -6 160 -13 190
-27 30 -15 42 -16 55 -7 62 46 145 55 641 72 326 10 368 14 435 31 88 24 18
32 -490 54 -430 19 -505 27 -566 59 l-47 24 -54 -26 -53 -26 -1280 -3 c-704
-3 -1299 -2 -1322 2 -32 5 -43 11 -43 23 0 10 -23 35 -50 55 -94 70 -133 147
-146 291 -12 130 17 237 84 316 l30 35 154 -156 154 -156 79 94 c44 52 94 108
112 124 l31 31 25 -38 c13 -22 51 -69 83 -106 32 -36 66 -76 74 -89 16 -22 16
-22 72 37 31 33 85 95 120 139 96 119 87 116 163 55 75 -60 177 -168 208 -222
12 -21 24 -38 27 -38 3 1 28 31 57 68 29 37 102 119 164 182 149 155 169 188
133 224 -21 22 -25 21 -78 -20 -54 -41 -77 -39 -107 9 -18 30 -19 55 -19 480
0 400 2 448 16 454 23 9 74 -47 84 -93 5 -21 10 -62 10 -90 0 -37 5 -56 19
-68 19 -17 21 -15 73 55 91 126 122 165 167 214 l44 48 18 -24 c10 -13 23 -40
29 -59 12 -43 13 -826 1 -888 -6 -31 -19 -53 -46 -77 -22 -21 -35 -41 -33 -52
2 -11 38 -35 93 -63 166 -83 326 -208 384 -299 18 -28 36 -51 40 -51 16 0 42
38 57 83 23 67 158 193 303 281 62 38 120 80 128 93 14 21 13 25 -11 54 l-26
31 0 478 c0 262 3 492 7 510 4 22 25 51 62 87 l56 54 -32 27 c-17 15 -43 35
-57 45 -75 52 -451 620 -507 766 -23 60 -30 173 -17 266 15 99 -22 98 -103 -2
-139 -172 -270 -326 -351 -411 -106 -111 -122 -134 -113 -162 8 -25 17 -25 85
1 30 11 68 25 83 31 23 8 32 7 47 -7 22 -20 260 -399 267 -425 3 -12 -16 -32
-64 -67 -104 -77 -166 -119 -201 -137 -32 -16 -33 -16 -75 16 -74 57 -188 171
-228 231 -22 31 -44 57 -49 57 -6 0 -34 -33 -64 -72 -30 -40 -65 -86 -78 -101
l-23 -28 -54 83 c-98 149 -115 157 -174 81 -36 -47 -192 -212 -234 -246 -15
-13 -26 -16 -40 -9 -113 54 -203 107 -275 160 -73 54 -89 71 -94 99 -13 69
-54 62 -134 -22 -36 -39 -238 -203 -300 -245 -54 -36 -90 -72 -90 -90 0 -21
26 -45 62 -56 16 -5 57 -45 97 -94 l71 -85 -28 -23 c-15 -13 -78 -57 -140 -98
-62 -41 -115 -81 -119 -90 -3 -9 6 -27 23 -45 l29 -30 -3 -262 c-3 -247 -5
-263 -24 -284 l-20 -21 -37 20 c-20 11 -39 25 -43 32 -4 6 -8 234 -8 507 l0
496 30 41 c32 44 38 77 18 85 -30 11 -180 131 -262 208 l-88 83 -25 -29 c-14
-17 -61 -69 -105 -117 l-80 -88 -49 58 c-52 59 -89 120 -89 146 0 21 -28 46
-44 40 -8 -3 -45 -44 -84 -92 -39 -48 -97 -113 -129 -144 l-58 -58 -52 43
c-56 46 -125 123 -174 193 -16 24 -36 44 -43 44 -8 0 -39 -33 -69 -72 -31 -40
-66 -86 -79 -101 l-23 -29 -56 109 c-40 76 -62 109 -76 111 -14 2 -36 -16 -76
-65 -31 -37 -94 -106 -140 -152 l-85 -83 -44 30 c-52 36 -172 160 -213 221
-17 25 -35 46 -41 48 -6 2 -42 -31 -79 -73 -106 -118 -254 -228 -423 -313 -69
-35 -77 -54 -42 -98 19 -25 20 -41 20 -473 0 -441 0 -447 -21 -466 -53 -48
-46 -71 31 -108 118 -57 199 -115 285 -201 50 -50 97 -102 106 -115 l16 -24
40 55 c22 30 85 101 140 159 166 174 264 328 233 365 -19 23 -46 18 -82 -13
-54 -47 -161 -122 -174 -122 -16 0 -111 65 -151 103 l-33 31 0 105 0 106 122
97 c68 54 166 131 218 171 l95 73 -4 145 c-3 137 -2 145 18 163 44 40 46 27
49 -477 3 -503 1 -536 -44 -578 -13 -12 -24 -26 -24 -31 0 -5 40 -47 88 -93
48 -45 94 -95 101 -109 17 -31 31 -25 31 15 0 23 -13 44 -52 85 -28 30 -67 64
-85 75 -34 21 -34 21 -15 43 11 11 25 31 31 43 15 30 16 1022 0 1056 -6 12
-20 29 -31 36 -17 10 -23 10 -38 -4 -12 -11 -20 -13 -25 -6 -3 6 43 62 103
124 60 63 126 135 147 160 22 26 42 47 46 47 4 0 9 -12 12 -27 3 -16 24 -61
46 -102 33 -58 41 -84 41 -124 l0 -49 61 83 c33 46 77 107 97 136 20 29 40 52
43 53 4 0 18 -17 32 -39 37 -55 130 -153 176 -185 32 -22 38 -31 28 -40 -42
-43 -178 -217 -209 -268 l-38 -62 0 62 c0 33 -5 73 -10 87 -10 25 -116 145
-129 145 -3 0 -16 -15 -29 -34 l-23 -33 3 -479 c3 -523 0 -496 62 -545 32 -25
48 -20 117 39 22 19 42 32 45 30 7 -8 -60 -88 -181 -218 -59 -63 -112 -125
-118 -137 -13 -30 -25 -29 -39 2 -13 29 -21 31 -37 11 -18 -21 -21 -88 -4 -81
8 3 21 -7 31 -25 9 -16 20 -30 23 -30 3 0 12 15 21 33 9 17 67 90 129 160 205
230 239 277 226 311 -11 27 -51 18 -107 -24 -30 -22 -60 -38 -68 -35 -7 3 -15
5 -18 5 -2 0 -10 13 -19 30 -13 25 -15 95 -15 475 0 392 2 446 15 452 20 7 54
-23 71 -64 8 -18 14 -61 14 -96 0 -51 4 -68 19 -81 11 -10 24 -15 29 -12 6 3
42 50 80 104 101 140 144 183 179 181 15 -1 36 2 45 5 11 5 21 0 33 -17 14
-22 15 -77 13 -500 l-3 -476 -42 -43 c-24 -24 -43 -48 -43 -54 0 -5 30 -39 66
-74 77 -75 150 -160 183 -213 12 -20 26 -37 30 -37 5 0 28 28 52 63 24 34 88
107 141 162 54 55 98 106 98 112 0 7 -18 24 -40 38 -21 13 -44 33 -50 44 -6
13 -10 177 -10 470 l0 451 35 38 35 37 30 -35 30 -34 0 -587 c0 -670 2 -695
73 -839 32 -67 58 -101 117 -159 41 -40 98 -86 127 -103 100 -57 114 -55 -359
-62 -238 -3 -896 -4 -1463 -2 -896 4 -1038 7 -1088 20 -54 15 -62 15 -105 -1
-40 -15 -84 -17 -290 -17 -133 1 -245 3 -248 7 -12 12 83 110 196 201 143 116
326 236 537 350 89 48 169 96 178 106 15 17 13 21 -24 64 -22 25 -46 63 -52
84 -15 44 -24 612 -14 799 7 119 8 124 46 187 21 36 39 72 39 81 0 8 -21 28
-46 43 -25 15 -122 77 -214 137 -92 61 -204 128 -248 150 -44 22 -81 43 -81
47 -1 3 33 25 74 47 104 57 264 180 308 237 21 26 50 73 65 103 26 53 27 65
32 246 5 198 8 210 56 268 29 35 23 51 -27 71 -38 15 -215 119 -232 135 -16
16 388 20 2148 21 1957 1 2095 -1 2173 -46 l42 -25 46 33 46 33 172 5 c94 3
347 7 561 8 215 1 507 8 650 15 287 13 396 13 560 -2 83 -7 142 -6 240 5 72 7
210 21 308 29 229 21 250 28 121 44 -165 20 -175 21 -304 31 -69 5 -155 15
-191 21 -52 9 -84 9 -145 -1 -152 -24 -240 -26 -469 -13 -137 8 -390 13 -625
11 -697 -3 -859 1 -902 23 -20 10 -39 23 -43 29 -10 16 -33 12 -73 -14 -36
-23 -47 -24 -327 -35 -187 -7 -988 -11 -2260 -11 l-1970 0 -63 53 c-141 118
-242 269 -262 394 -15 87 11 208 65 314 15 28 129 181 177 237 48 56 33 87
-30 62z m-83 -132 c-75 -90 -121 -165 -156 -254 -22 -57 -26 -85 -26 -164 -1
-81 3 -105 26 -160 52 -124 151 -245 296 -362 99 -80 335 -235 434 -285 68
-35 76 -42 62 -53 -34 -28 -39 -57 -45 -260 l-6 -205 -37 -61 c-83 -139 -301
-303 -477 -359 -23 -7 -23 -6 8 30 18 20 31 39 29 42 -3 2 -40 -13 -82 -35
l-78 -39 74 -46 c64 -39 80 -46 110 -41 44 7 80 -12 343 -183 104 -68 197
-123 207 -123 25 0 24 -6 -8 -44 -53 -63 -53 -60 -53 -562 0 -509 1 -523 56
-581 27 -28 30 -35 16 -39 -9 -2 -77 -35 -151 -72 -209 -105 -491 -296 -664
-449 -23 -20 -45 -32 -54 -29 -10 4 -13 1 -9 -12 4 -13 -10 -37 -48 -78 -67
-74 -158 -209 -194 -287 -29 -63 -46 -75 -37 -24 4 17 2 43 -3 57 -9 24 -11
22 -36 -34 -14 -33 -24 -61 -21 -64 3 -3 5 0 5 6 0 7 7 12 15 12 20 0 20 -73
0 -131 -42 -118 -83 -330 -100 -512 -4 -38 -8 -67 -10 -65 -2 2 -9 123 -15
269 -16 392 -38 516 -122 689 -46 93 -63 116 -147 200 -156 154 -312 229 -496
238 -116 5 -187 -7 -271 -47 -207 -99 -304 -352 -194 -508 16 -24 25 -43 20
-43 -15 0 -57 61 -87 125 -22 50 -27 74 -27 145 -1 95 13 157 57 245 90 183
259 309 541 406 73 25 122 64 153 122 16 28 18 64 18 322 l0 290 -33 68 c-25
51 -58 92 -133 166 -54 55 -99 102 -99 105 0 3 21 -8 48 -25 26 -16 69 -36 95
-44 62 -18 90 -6 118 52 19 40 21 56 17 176 -4 114 -9 142 -33 206 -95 249
-412 558 -739 722 -55 28 -103 52 -105 55 -2 2 20 -3 50 -12 139 -39 293 -95
509 -182 129 -52 247 -99 262 -105 50 -20 51 -13 49 310 -2 297 -2 298 -27
351 -33 67 -114 134 -238 196 -370 185 -901 135 -1166 -111 -97 -89 -81 -54
22 49 136 137 284 227 479 292 176 59 303 76 644 86 388 11 515 33 727 125
203 87 365 204 607 438 96 92 178 167 183 167 4 0 -19 -33 -53 -72z m5530
-953 c366 0 781 -4 921 -8 155 -5 302 -5 375 1 115 9 412 1 580 -17 58 -5 31
-8 -150 -15 -121 -4 -240 -11 -265 -15 -25 -3 -97 -2 -160 2 -63 5 -205 6
-315 3 -421 -12 -655 -16 -1092 -21 -249 -2 -456 -5 -460 -6 -4 -1 -16 1 -26
6 -11 4 -23 3 -30 -4 -6 -6 -22 -11 -36 -11 -14 0 -35 -10 -47 -21 l-23 -22
-32 28 c-28 23 -39 26 -78 21 -25 -3 -53 -6 -61 -7 -36 -3 -3943 6 -4112 9
-108 2 -188 7 -188 13 0 5 35 10 78 10 l77 2 -90 8 c-49 4 -101 12 -115 17
-44 19 -40 19 2315 21 985 2 1849 6 1920 10 72 5 131 4 133 0 2 -5 21 -9 43
-9 29 0 47 7 71 29 l32 29 35 -27 35 -26 665 0z m279 -437 c-29 -139 34 -285
290 -668 187 -281 230 -336 279 -356 l32 -14 -42 -43 c-25 -24 -48 -59 -55
-84 -9 -31 -12 -164 -10 -529 2 -447 4 -492 20 -524 10 -19 14 -36 9 -38 -33
-11 -196 -117 -255 -167 -94 -78 -134 -124 -155 -180 l-18 -46 -28 40 c-51 74
-252 227 -370 283 l-65 30 35 39 35 39 0 490 c0 483 0 490 -21 511 -11 11 -19
22 -17 23 1 1 46 28 98 61 93 58 280 191 280 199 0 13 -285 455 -309 479 -37
38 -76 38 -140 -1 -28 -18 -51 -29 -51 -26 0 4 49 58 110 121 104 108 212 236
310 366 23 32 44 56 46 54 2 -2 -2 -28 -8 -59z m-8367 -662 c25 -125 109 -319
109 -250 0 26 18 6 25 -29 14 -62 58 -136 106 -177 54 -45 59 -47 59 -22 0 15
3 14 18 -5 24 -30 108 -71 171 -83 101 -19 130 -9 69 23 l-33 17 40 -6 c83
-12 220 -88 284 -158 34 -36 18 -33 -39 8 -64 46 -105 66 -132 65 -18 0 -14
-4 18 -19 23 -10 45 -23 49 -30 4 -6 25 -22 47 -36 31 -20 38 -28 27 -35 -10
-6 -10 -9 -2 -9 7 0 49 -33 93 -73 58 -53 89 -90 110 -133 16 -32 44 -76 62
-97 24 -28 29 -40 20 -46 -16 -10 -3 -46 32 -88 29 -34 80 -142 72 -151 -3 -3
-15 15 -25 39 -30 68 -162 239 -184 239 -5 0 -20 9 -34 20 -14 11 -33 20 -41
20 -13 0 -13 -3 1 -18 21 -23 21 -32 2 -32 -18 0 -12 -36 13 -85 l16 -30 7 35
c4 19 12 36 18 38 6 2 11 10 11 18 0 8 4 14 8 14 14 0 32 -23 32 -41 0 -9 7
-22 15 -29 8 -7 15 -20 15 -30 0 -9 12 -39 26 -66 28 -51 40 -104 24 -104 -5
0 -11 4 -14 9 -9 13 -55 20 -50 7 3 -6 29 -29 59 -50 30 -22 55 -43 55 -47 0
-11 78 -90 115 -116 16 -12 27 -24 24 -27 -3 -3 -24 8 -48 25 -23 17 -45 28
-49 24 -4 -4 -1 -10 6 -12 24 -9 72 -55 67 -64 -4 -5 -18 -1 -33 8 l-27 17 18
-21 c12 -13 14 -23 8 -27 -6 -4 -23 13 -38 38 -15 24 -50 61 -77 82 -37 28
-45 32 -34 15 9 -13 30 -32 47 -42 52 -32 87 -105 54 -115 -10 -3 -51 -19 -92
-35 l-74 -29 -29 30 c-36 38 -45 39 -19 1 12 -16 21 -32 21 -35 0 -17 -25 3
-122 99 -59 58 -101 105 -93 105 7 0 17 -4 20 -10 3 -5 15 -10 26 -10 10 0 19
-4 19 -10 0 -17 41 -33 53 -21 12 12 -5 70 -32 108 -24 34 -32 28 -26 -19 4
-36 4 -39 -4 -15 -15 45 -58 94 -121 139 -33 23 -58 43 -56 45 2 2 25 -6 52
-17 l49 -21 -33 34 c-19 19 -39 34 -45 33 -7 0 -46 16 -87 36 -94 46 -161 63
-82 21 64 -35 59 -47 -11 -26 -28 8 -64 13 -81 10 -17 -2 -38 -1 -46 3 -8 4
-44 16 -79 27 l-63 21 23 -24 c21 -21 196 -97 257 -111 35 -8 26 -26 -10 -20
-56 9 -196 63 -235 90 -21 15 -60 47 -88 72 -27 25 -63 53 -78 63 -22 13 -27
23 -24 41 4 20 -8 38 -56 89 -34 35 -63 58 -65 52 -6 -17 39 -110 67 -138 23
-23 24 -41 1 -27 -19 12 -80 113 -80 132 0 10 -9 35 -20 55 -11 21 -17 45 -14
55 5 14 4 15 -4 4 -8 -12 -14 -7 -27 25 -10 21 -21 47 -26 56 -5 10 -9 25 -9
33 0 9 -6 26 -14 38 -13 20 -41 155 -34 162 2 2 14 -24 28 -58 22 -54 64 -106
138 -172 7 -5 37 -38 68 -72 31 -35 64 -63 74 -63 10 0 23 -7 30 -15 7 -8 27
-15 44 -15 17 0 40 -7 50 -15 11 -8 29 -15 39 -15 19 0 19 1 3 19 -10 11 -32
25 -49 32 -37 14 -67 38 -67 52 0 5 15 -2 33 -15 17 -13 61 -35 97 -48 36 -13
69 -27 74 -32 6 -4 22 -8 36 -8 14 0 50 -16 80 -35 30 -20 62 -34 70 -33 8 1
21 -1 28 -6 22 -13 26 2 7 24 -10 11 -39 27 -64 34 l-46 14 54 7 c51 8 52 9
30 21 -13 7 -33 14 -44 14 -19 1 -18 2 3 12 l22 11 -22 24 c-12 12 -16 23 -10
23 6 0 19 -11 28 -25 9 -14 25 -25 35 -25 19 0 183 -83 210 -106 15 -14 69
-20 69 -8 0 3 -11 15 -25 26 -34 26 -32 39 5 32 39 -8 38 6 -1 45 -36 37 -63
42 -29 6 17 -18 19 -25 9 -25 -17 0 -89 47 -89 59 0 13 -74 61 -117 77 -21 7
-32 13 -25 14 7 0 10 5 6 12 -5 8 2 9 27 5 24 -5 30 -4 19 3 -8 5 -59 10 -112
10 -64 0 -98 4 -98 11 0 6 9 13 20 16 30 8 24 27 -15 46 -47 22 -58 22 -50 -4
6 -19 3 -18 -36 8 -42 27 -42 28 -16 31 39 5 34 15 -20 41 -26 13 -62 35 -80
49 -83 67 -113 95 -113 107 0 7 -7 18 -16 26 -20 16 -47 69 -40 77 4 3 13 -3
20 -14 8 -10 18 -16 22 -12 4 4 -10 23 -31 42 -33 30 -37 40 -37 78 1 24 -6
68 -14 98 -34 119 -51 230 -36 230 4 0 14 -38 23 -84z m6644 -207 c-5 -15 2
-29 30 -55 48 -45 221 -159 290 -190 l54 -25 -27 -41 -27 -42 0 -507 c0 -500
0 -508 21 -536 14 -18 32 -29 52 -31 18 -2 32 -7 32 -11 0 -5 -31 -46 -68 -92
-38 -46 -75 -95 -82 -108 -9 -18 -14 -21 -21 -10 -9 15 -8 16 -40 -32 l-24
-37 -55 66 c-86 104 -100 129 -100 192 l0 55 -38 -45 c-20 -25 -76 -89 -124
-142 -48 -54 -91 -106 -97 -115 -8 -16 -12 -15 -32 12 -34 45 -212 222 -228
227 -12 3 -10 11 10 39 24 34 24 36 27 310 l3 276 -26 31 c-15 18 -22 32 -17
32 14 0 312 198 312 207 0 4 -35 41 -77 83 -43 42 -88 90 -101 108 -13 17 -37
35 -54 40 l-31 8 54 38 c93 67 282 222 329 270 48 50 65 58 55 25z m-2750 -20
c21 -39 152 -177 215 -225 46 -35 47 -37 34 -63 -11 -20 -14 -66 -13 -191 l2
-164 -34 -26 c-19 -13 -110 -85 -204 -159 -93 -74 -177 -138 -185 -143 -12 -8
-14 -33 -12 -139 l3 -130 100 -75 c56 -41 109 -78 118 -84 14 -7 36 5 104 56
48 36 93 75 102 86 25 36 29 12 4 -29 -39 -65 -103 -144 -200 -248 -52 -55
-108 -118 -125 -139 l-31 -39 -24 35 c-13 19 -49 56 -79 83 -61 52 -257 185
-274 185 -6 0 -18 5 -26 10 -12 7 -11 13 10 35 l25 27 0 468 c0 438 -1 469
-18 488 -18 20 -17 21 45 52 149 76 345 226 410 315 18 24 34 44 35 45 1 0 10
-14 18 -31z m3564 -59 c33 -57 38 -74 40 -135 1 -38 3 -71 5 -72 1 -2 16 16
33 40 59 82 176 232 182 234 3 1 17 -16 31 -38 24 -39 153 -170 197 -200 l22
-15 -50 -54 c-28 -30 -85 -102 -127 -160 -41 -58 -79 -109 -82 -113 -4 -4 -7
23 -7 60 1 82 -12 109 -83 178 l-52 50 -29 -35 -29 -34 0 -467 c0 -258 4 -478
9 -492 12 -32 75 -97 94 -97 8 0 38 16 67 36 28 19 54 33 57 30 3 -3 -55 -67
-129 -143 -74 -76 -148 -157 -165 -181 l-31 -42 -19 32 c-30 51 -122 147 -185
193 l-56 42 31 32 32 31 3 515 c2 453 1 519 -13 545 -23 44 -57 57 -90 36 -57
-38 -21 14 85 119 61 61 123 127 137 148 l27 38 12 -23 12 -23 8 30 c6 22 9
26 16 15 5 -8 26 -44 47 -80z m-2119 65 c0 -24 28 -74 73 -132 39 -49 40 -55
38 -115 -3 -75 -17 -85 144 102 59 69 111 129 116 134 4 5 47 -27 95 -72 47
-45 117 -103 155 -129 l69 -47 -20 -21 c-11 -12 -25 -37 -30 -56 -14 -49 -11
-995 4 -1040 7 -22 22 -39 42 -49 l31 -16 -29 -34 c-61 -73 -88 -157 -88 -278
0 -158 73 -322 164 -369 52 -27 14 -25 -49 2 -121 54 -242 170 -300 289 -71
145 -69 123 -73 813 l-3 623 -49 50 c-27 27 -53 50 -58 50 -6 0 -33 -27 -61
-59 l-52 -59 3 -482 3 -482 31 -28 c17 -15 37 -29 44 -32 6 -2 -31 -47 -82
-101 -52 -53 -103 -112 -114 -132 -10 -19 -21 -35 -24 -35 -3 0 -16 19 -30 42
-14 22 -64 81 -112 130 -83 85 -85 89 -66 103 12 7 29 27 39 42 18 26 19 58
19 521 0 530 -1 539 -51 570 -18 12 -24 11 -45 -9 -20 -19 -24 -20 -24 -6 0
10 48 68 106 130 58 61 120 131 137 155 32 44 47 53 47 27z m1731 -341 c13
-12 22 -13 38 -5 69 37 71 21 71 -516 0 -405 -2 -469 -16 -499 -22 -46 -40
-60 -59 -44 -8 7 -30 20 -47 29 -59 29 -58 23 -56 531 3 427 4 468 21 493 20
31 24 32 48 11z m-6877 -10 c3 -8 2 -12 -4 -9 -6 3 -10 10 -10 16 0 14 7 11
14 -7z m755 -207 c45 -53 77 -107 62 -107 -5 0 -25 24 -45 53 -20 28 -48 67
-63 86 -41 51 -2 24 46 -32z m-845 -33 c9 -8 16 -20 16 -25 0 -17 -18 -9 -34
16 -18 28 -6 34 18 9z m999 -190 c9 -24 12 -44 7 -44 -4 0 -13 12 -18 28 -6
15 -17 45 -26 67 -17 39 -17 40 2 17 10 -13 26 -43 35 -68z m-123 -82 c0 -13
-12 -22 -22 -16 -10 6 -1 24 13 24 5 0 9 -4 9 -8z m-905 -22 c3 -5 1 -10 -4
-10 -6 0 -11 5 -11 10 0 6 2 10 4 10 3 0 8 -4 11 -10z m1131 -46 c8 -20 13
-41 11 -47 -4 -12 -47 54 -47 72 0 24 22 9 36 -25z m-1041 -49 c28 -5 35 -9
25 -15 -25 -14 -81 3 -99 30 l-16 24 25 -16 c14 -9 43 -19 65 -23z m426 -138
c-1 -12 -15 -9 -19 4 -3 6 1 10 8 8 6 -3 11 -8 11 -12z m-285 -629 c17 10 39
-7 83 -63 28 -36 49 -65 46 -65 -4 0 -28 7 -54 16 -59 19 -116 76 -126 124
l-7 35 27 -25 c14 -14 28 -24 31 -22z m194 -158 c0 -5 -2 -10 -4 -10 -3 0 -8
5 -11 10 -3 6 -1 10 4 10 6 0 11 -4 11 -10z m8643 -321 c78 -4 291 -10 472
-14 182 -4 332 -9 334 -11 2 -2 -40 -4 -95 -4 -81 0 -491 -12 -791 -23 -53 -2
-66 -6 -91 -30 -18 -18 -32 -25 -36 -18 -4 6 -28 21 -54 33 l-47 23 105 5 c58
4 98 7 90 8 -38 6 -221 5 -227 -1 -3 -4 2 -7 12 -7 13 0 16 -3 9 -10 -5 -5
-43 -11 -84 -12 -41 -1 -1336 -1 -2878 0 -2020 2 -2814 -1 -2846 -9 -34 -8
-49 -8 -67 2 -17 9 -107 13 -323 16 -165 1 -301 5 -304 8 -3 3 26 5 64 6 38 0
89 4 114 8 44 8 44 9 -22 10 -37 0 -69 5 -73 10 -6 11 391 20 414 10 15 -7 87
4 142 22 28 9 45 9 73 -1 29 -9 660 -12 2843 -11 1543 1 2809 4 2813 6 5 3 41
-2 80 -10 72 -15 73 -15 116 10 24 14 46 30 50 36 4 7 17 0 35 -17 28 -27 34
-28 172 -35z"/>
<path d="M2493 6140 c-31 -58 -100 -156 -186 -267 -151 -194 -254 -364 -279
-458 l-13 -50 -5 70 c-3 39 -2 83 2 99 11 42 2 45 -15 5 -10 -25 -11 -48 -4
-89 9 -58 1 -985 -10 -1077 -3 -29 -3 -53 1 -53 4 0 20 10 35 21 16 12 34 19
39 15 7 -4 7 6 0 30 -6 24 -8 219 -6 538 3 411 7 506 19 531 12 27 14 -24 17
-459 1 -352 -1 -492 -9 -497 -8 -5 -8 -9 1 -14 9 -6 11 -28 6 -82 -8 -84 -4
-98 24 -80 16 10 20 23 20 74 0 35 2 63 6 63 11 0 124 -81 131 -95 8 -13 21
-11 95 14 187 63 332 169 396 288 80 152 64 356 -40 490 -73 95 -248 228 -471
359 l-88 51 36 23 c58 36 112 114 185 265 37 77 71 151 75 165 4 14 21 51 37
84 31 61 32 93 1 36z m-215 -703 l82 -52 2 -45 c3 -91 -4 -246 -13 -285 -5
-22 -21 -65 -35 -96 l-26 -56 21 -41 c28 -54 27 -59 -13 -76 -41 -17 -50 -30
-42 -61 4 -15 18 -27 41 -35 45 -15 57 -55 53 -175 -3 -89 -3 -90 -29 -93 -17
-2 -55 12 -100 36 l-74 39 -7 184 c-3 101 -4 293 -2 427 2 133 4 276 4 318 l0
76 28 -7 c15 -3 64 -30 110 -58z m141 -197 c1 -122 18 -255 37 -291 13 -26 12
-32 -6 -66 -37 -70 -20 -123 41 -128 19 -2 38 -3 43 -4 5 -1 3 -7 -3 -15 -9
-11 -20 -12 -44 -5 -18 5 -33 9 -35 9 -2 0 -9 -15 -17 -32 -8 -21 -12 -56 -9
-98 7 -98 -7 -194 -28 -198 -16 -3 -18 7 -19 95 -1 54 -1 114 0 133 1 20 -3
48 -9 64 -8 23 -15 27 -35 24 -13 -3 -29 -2 -36 2 -17 11 -1 30 25 30 13 0 31
9 41 20 17 19 17 22 1 65 -10 25 -25 49 -34 54 -15 9 -15 12 5 33 12 13 26 41
32 63 8 31 27 249 32 363 0 14 2 13 9 -3 5 -11 9 -63 9 -115z m107 34 c92 -69
171 -154 198 -214 50 -112 50 -265 0 -367 -40 -82 -194 -223 -243 -223 -13 0
-15 178 -3 196 4 6 23 16 44 23 35 11 48 27 48 56 0 7 -20 25 -45 39 -49 29
-55 48 -30 95 13 26 12 34 -10 97 -18 52 -25 102 -31 202 -8 153 -7 154 72 96z"/>
<path d="M2391 4931 c-13 -23 -6 -61 9 -61 15 0 23 47 12 66 -9 16 -11 15 -21
-5z"/>
<path d="M2390 4760 c0 -5 5 -10 10 -10 6 0 10 5 10 10 0 6 -4 10 -10 10 -5 0
-10 -4 -10 -10z"/>
<path d="M3358 5178 c-20 -29 -24 -48 -29 -173 -4 -77 -12 -162 -18 -188 -17
-71 -70 -146 -153 -217 -104 -89 -109 -94 -75 -79 15 7 27 16 27 20 0 4 7 10
16 13 15 6 15 4 3 -11 -12 -15 -12 -16 4 -10 10 4 23 7 28 7 5 0 9 10 9 23 0
12 4 27 8 33 12 17 106 100 98 87 -9 -17 -1 -16 34 2 21 11 27 20 23 35 -3 11
-9 17 -14 14 -5 -3 -9 2 -9 10 0 8 4 18 10 21 5 3 10 16 9 28 0 12 4 92 9 177
7 129 12 162 30 198 27 50 22 54 -10 10z"/>
<path d="M1977 4268 c-3 -12 -1 -31 6 -42 8 -15 11 -99 9 -289 -2 -226 -5
-271 -18 -284 -13 -14 -13 -17 0 -32 22 -24 25 -716 3 -776 -22 -63 -28 -95
-18 -95 5 0 11 10 13 23 2 18 11 23 48 28 38 6 51 3 80 -18 265 -185 294 -210
231 -201 -17 2 -31 1 -31 -4 0 -4 6 -8 13 -8 7 0 23 -9 36 -21 22 -20 23 -20
36 -3 7 11 10 23 6 29 -5 5 -16 204 -26 440 -10 237 -22 435 -27 442 -6 7 -5
19 1 32 6 11 11 40 11 65 0 41 -2 46 -23 46 -12 0 -33 -7 -45 -16 -21 -15 -25
-15 -41 0 -10 9 -47 25 -82 35 -70 19 -68 24 17 46 33 8 64 22 71 31 11 15 14
14 38 -4 21 -17 29 -18 50 -9 20 10 25 19 25 47 0 19 -6 47 -14 62 -8 14 -10
30 -5 35 10 10 39 170 40 222 0 20 4 45 8 56 l8 20 6 -20 c3 -11 16 -76 28
-145 12 -69 25 -130 30 -136 5 -6 4 -15 -2 -21 -7 -7 -14 -37 -18 -69 -3 -32
-12 -59 -18 -62 -10 -3 -13 20 -13 92 0 57 -4 96 -10 96 -6 0 -10 -38 -10 -95
0 -57 -4 -95 -10 -95 -5 0 -10 -7 -10 -15 0 -10 -11 -15 -32 -16 -18 0 -42 -5
-53 -10 -15 -7 -7 -8 27 -4 66 7 78 -12 78 -128 0 -56 4 -86 10 -82 6 3 10 44
10 90 0 85 1 89 45 120 20 14 20 14 -2 15 -29 0 -30 26 -2 40 15 9 24 8 35 0
11 -10 19 -9 38 3 22 15 27 15 54 1 17 -8 59 -20 94 -26 89 -15 102 -25 43
-33 -116 -15 -125 -17 -143 -40 -18 -23 -19 -23 -43 -4 -47 36 -79 18 -79 -46
0 -23 5 -46 12 -53 8 -8 8 -15 -2 -27 -9 -11 -14 -53 -16 -123 -2 -59 -5 -143
-8 -187 -4 -44 -11 -179 -16 -300 -6 -121 -12 -231 -15 -245 -3 -20 4 -32 36
-58 l41 -32 62 52 c33 29 111 102 173 163 94 93 118 123 148 186 47 100 55
156 55 404 -1 355 -40 477 -200 622 -127 115 -402 249 -555 270 -40 5 -49 10
-57 35 -12 34 -15 34 -42 4 l-21 -25 -25 34 c-29 40 -36 42 -43 13z m112 -316
c0 -131 -3 -251 -8 -268 l-8 -29 -12 28 c-15 38 -15 433 0 476 6 17 15 31 20
31 5 0 8 -107 8 -238z m164 178 c95 -29 101 -38 93 -130 -4 -42 -13 -94 -21
-116 -8 -21 -14 -57 -15 -79 0 -46 -13 -71 -30 -60 -6 4 -22 -2 -35 -15 -13
-12 -41 -24 -63 -27 -40 -5 -41 -5 -46 28 -5 28 -4 176 3 382 1 32 4 37 25 37
13 0 53 -9 89 -20z m331 -150 c103 -67 194 -162 234 -242 18 -36 32 -71 32
-77 0 -22 -56 -11 -215 41 -33 11 -80 21 -105 22 l-45 1 0 70 c0 39 -4 107 -9
153 -8 78 -8 82 11 82 11 0 55 -22 97 -50z m-514 -334 c9 -12 6 -16 -22 -21
-18 -3 -44 -2 -58 3 l-25 10 25 10 c36 15 66 14 80 -2z m797 -53 c4 -21 8
-146 8 -278 0 -315 -12 -366 -115 -478 -51 -56 -135 -107 -176 -107 -13 0 -26
-5 -30 -12 -13 -21 68 0 119 32 68 42 70 31 4 -14 -32 -22 -71 -40 -95 -43
-38 -5 -41 -7 -36 -33 5 -21 0 -32 -21 -49 -33 -25 -60 -27 -69 -5 -14 36 -2
354 25 689 6 72 12 153 13 180 2 49 2 50 36 53 19 2 46 12 60 21 14 10 63 26
110 35 47 9 94 23 105 31 35 25 53 18 62 -22z m-779 -388 c0 -176 -3 -331 -7
-345 l-7 -25 -9 25 c-15 44 -18 638 -4 700 l13 55 7 -45 c4 -25 7 -189 7 -365z
m107 361 c19 -8 35 -20 35 -25 0 -6 14 -11 30 -11 17 0 32 -6 34 -12 17 -56
56 -600 56 -767 0 -65 -2 -72 -17 -67 -32 12 -119 68 -156 100 l-36 31 -7 361
c-3 198 -3 370 0 382 9 26 15 27 61 8z m-150 -726 c3 -5 1 -10 -4 -10 -6 0
-11 5 -11 10 0 6 2 10 4 10 3 0 8 -4 11 -10z"/>
<path d="M2393 4170 c-2 -23 22 -27 30 -6 5 11 -11 26 -27 26 -1 0 -2 -9 -3
-20z"/>
<path d="M3390 3893 c-9 -18 -14 -72 -16 -148 l-2 -120 7 105 c4 58 14 124 23
148 17 47 9 57 -12 15z"/>
<path d="M2510 3630 c0 -5 5 -10 10 -10 6 0 10 5 10 10 0 6 -4 10 -10 10 -5 0
-10 -4 -10 -10z"/>
<path d="M3370 3155 c0 -131 3 -235 6 -232 8 7 6 458 -1 465 -3 3 -5 -102 -5
-233z"/>
<path d="M2970 2910 c0 -5 5 -10 11 -10 5 0 7 5 4 10 -3 6 -8 10 -11 10 -2 0
-4 -4 -4 -10z"/>
<path d="M3333 2775 c-36 -49 -43 -67 -15 -43 9 9 36 22 60 29 l42 12 -22 24
c-12 12 -24 23 -27 23 -3 -1 -21 -21 -38 -45z"/>
<path d="M1530 2720 c0 -5 5 -10 10 -10 6 0 10 5 10 10 0 6 -4 10 -10 10 -5 0
-10 -4 -10 -10z"/>
<path d="M2636 2523 c-4 -24 -13 -43 -19 -43 -8 0 -7 -4 1 -12 7 -7 12 -22 12
-35 0 -13 4 -23 9 -23 14 0 19 41 12 100 l-7 55 -8 -42z"/>
<path d="M1395 2520 c3 -5 8 -10 11 -10 2 0 4 5 4 10 0 6 -5 10 -11 10 -5 0
-7 -4 -4 -10z"/>
<path d="M1435 2510 c3 -5 12 -7 19 -4 8 3 30 1 50 -4 35 -10 61 0 30 12 -26
10 -106 7 -99 -4z"/>
<path d="M1895 2500 c-3 -5 -1 -10 4 -10 6 0 11 5 11 10 0 6 -2 10 -4 10 -3 0
-8 -4 -11 -10z"/>
<path d="M2569 2493 c-13 -16 -12 -17 4 -4 16 13 21 21 13 21 -2 0 -10 -8 -17
-17z"/>
<path d="M2320 2476 c0 -32 13 -40 28 -16 10 16 9 21 -8 30 -17 9 -20 8 -20
-14z"/>
<path d="M2115 2480 c-3 -6 1 -7 9 -4 18 7 21 14 7 14 -6 0 -13 -4 -16 -10z"/>
<path d="M1712 2459 c2 -7 10 -15 17 -17 8 -3 12 1 9 9 -2 7 -10 15 -17 17 -8
3 -12 -1 -9 -9z"/>
<path d="M1784 2415 c21 -13 42 -29 47 -36 4 -8 11 -10 14 -7 11 11 -2 25 -45
47 -55 28 -64 26 -16 -4z"/>
<path d="M1876 2404 c-5 -14 -4 -15 9 -4 17 14 19 20 6 20 -5 0 -12 -7 -15
-16z"/>
<path d="M2320 2338 c0 -36 4 -35 14 5 4 16 2 27 -4 27 -5 0 -10 -14 -10 -32z"/>
<path d="M2640 2263 c-74 -76 -82 -85 -35 -46 76 65 152 143 139 143 -5 0 -52
-44 -104 -97z"/>
<path d="M2306 2254 c-10 -25 1 -29 14 -5 6 12 7 21 1 21 -5 0 -12 -7 -15 -16z"/>
<path d="M2331 2174 c0 -11 3 -14 6 -6 3 7 2 16 -1 19 -3 4 -6 -2 -5 -13z"/>
<path d="M2060 2171 c0 -5 5 -13 10 -16 6 -3 10 -2 10 4 0 5 -4 13 -10 16 -5
3 -10 2 -10 -4z"/>
<path d="M2328 2110 c-9 -33 -13 -218 -5 -227 15 -14 18 9 15 128 -2 71 -6
113 -10 99z"/>
<path d="M7500 5529 c-41 -3 2 -6 114 -7 99 -1 176 1 172 6 -9 8 -193 9 -286
1z"/>
<path d="M8693 4148 c-6 -7 -24 -38 -39 -68 l-29 -55 -3 -525 -3 -525 91 -80
c51 -44 97 -85 105 -92 10 -10 14 -8 19 10 3 12 6 272 6 577 l0 556 -61 99
c-71 118 -73 120 -86 103z m56 -149 l41 -61 0 -519 c0 -286 -4 -519 -9 -519
-11 0 -82 56 -98 77 -10 13 -13 131 -13 510 0 429 2 498 16 533 9 22 18 40 19
40 2 0 22 -28 44 -61z"/>
<path d="M580 3946 c0 -2 7 -7 16 -10 8 -3 12 -2 9 4 -6 10 -25 14 -25 6z"/>
<path d="M1184 3602 c17 -33 44 -58 53 -48 11 10 -18 53 -43 65 -24 11 -24 10
-10 -17z"/>
<path d="M465 3475 c26 -21 65 -34 65 -21 0 7 -71 46 -83 46 -7 -1 2 -12 18
-25z"/>
<path d="M355 3450 c3 -5 11 -10 16 -10 6 0 7 5 4 10 -3 6 -11 10 -16 10 -6 0
-7 -4 -4 -10z"/>
<path d="M1094 3411 c11 -11 23 -21 28 -21 14 0 -1 19 -25 31 -22 12 -22 12
-3 -10z"/>
<path d="M800 3416 c0 -2 7 -7 16 -10 8 -3 12 -2 9 4 -6 10 -25 14 -25 6z"/>
<path d="M916 3404 c-4 -10 -13 -13 -28 -9 -23 6 -23 6 1 -13 30 -24 51 -18
51 14 0 27 -15 32 -24 8z"/>
<path d="M1210 3235 c13 -14 26 -23 28 -20 7 7 -29 45 -41 45 -6 0 0 -11 13
-25z"/>
<path d="M1050 3132 c0 -10 43 -52 54 -52 10 0 -36 59 -46 59 -5 1 -8 -3 -8
-7z"/>
<path d="M1221 2983 c42 -52 159 -153 177 -153 11 0 2 12 -23 32 -22 18 -65
56 -96 85 -54 51 -86 71 -58 36z"/>
<path d="M6658 3981 l-45 -29 7 -46 c9 -58 27 -78 188 -207 l122 -98 0 123 0
124 -47 39 c-58 47 -164 123 -173 123 -3 0 -27 -13 -52 -29z m132 -86 c83 -55
86 -59 93 -121 10 -85 0 -85 -106 6 -53 45 -98 90 -100 99 -3 14 28 61 42 61
3 0 35 -20 71 -45z"/>
<path d="M6748 3596 l-25 -51 2 -295 c1 -189 6 -303 13 -315 6 -11 28 -37 49
-58 l39 -38 52 55 52 55 0 285 0 284 -78 65 -79 65 -25 -52z m101 -82 l42 -37
-3 -258 c-3 -257 -3 -257 -27 -283 -31 -32 -41 -32 -72 0 l-24 26 0 276 c0
152 3 285 7 295 11 26 30 21 77 -19z"/>
<path d="M3960 3677 l0 -315 80 80 80 80 0 162 0 162 -62 60 c-109 105 -98
131 -98 -229z m110 152 c6 -10 10 -76 10 -147 0 -117 -2 -132 -22 -162 -45
-66 -48 -57 -48 159 l0 201 25 -16 c14 -9 30 -25 35 -35z"/>
<path d="M6275 2009 c-55 -3 190 -5 545 -5 355 0 620 1 590 3 -110 6 -1038 8
-1135 2z"/>
<path d="M5330 2000 c289 -3 572 -2 630 1 58 3 -178 5 -525 5 l-630 -1 525 -5z"/>
<path d="M6098 2003 c12 -2 32 -2 45 0 12 2 2 4 -23 4 -25 0 -35 -2 -22 -4z"/>
<path d="M7503 2003 c20 -2 54 -2 75 0 20 2 3 4 -38 4 -41 0 -58 -2 -37 -4z"/>
<path d="M7643 2003 c9 -2 23 -2 30 0 6 3 -1 5 -18 5 -16 0 -22 -2 -12 -5z"/>
<path d="M9315 2000 c4 -6 11 -8 16 -5 14 9 11 15 -7 15 -8 0 -12 -5 -9 -10z"/>
<path d="M21448 2996 c-16 -9 -28 -10 -28 -5 0 6 -4 8 -9 5 -13 -8 11 -55 24
-50 10 4 50 64 43 64 -2 0 -15 -7 -30 -14z"/>
<path d="M915 2770 c3 -5 14 -10 23 -10 15 0 15 2 2 10 -20 13 -33 13 -25 0z"/>
<path d="M890 2751 c0 -13 28 -33 41 -29 8 3 6 9 -5 21 -19 18 -36 22 -36 8z"/>
<path d="M21335 2654 c-16 -14 -48 -41 -70 -61 -39 -34 -61 -47 -134 -74 -19
-7 -54 -28 -78 -46 -24 -18 -46 -33 -50 -33 -3 0 -21 -11 -40 -26 -23 -17 -33
-33 -33 -52 0 -24 4 -27 39 -30 26 -1 46 4 64 18 17 14 41 20 74 20 59 1 79
12 147 78 49 48 74 92 123 220 8 19 -9 14 -42 -14z m-29 -81 c-9 -15 -40 -55
-70 -87 -51 -56 -57 -59 -109 -64 -33 -2 -57 0 -61 7 -10 15 30 51 58 51 45 0
130 47 160 89 33 46 46 48 22 4z m-301 -193 c-12 -14 -22 -17 -29 -10 -6 6 -3
16 9 30 12 14 22 17 29 10 6 -6 3 -16 -9 -30z"/>
<path d="M19026 2321 c-4 -5 0 -11 6 -14 22 -7 3 -17 -36 -19 -26 -1 -34 -4
-26 -12 13 -13 96 -10 133 5 16 7 27 19 27 30 0 23 -7 24 -27 4 -17 -17 -40
-14 -35 4 2 13 -34 15 -42 2z"/>
<path d="M20783 2228 c-28 -32 -38 -62 -17 -54 11 4 14 1 12 -12 -2 -9 -10
-17 -18 -17 -8 0 -17 -3 -20 -6 -3 -4 -28 -18 -56 -32 -28 -14 -58 -37 -68
-51 -9 -14 -22 -26 -29 -26 -7 0 -63 -49 -125 -110 -61 -60 -115 -110 -120
-110 -4 0 -35 -25 -67 -56 l-60 -56 35 7 c19 3 78 22 130 42 84 31 102 42 155
98 54 56 69 65 133 84 121 36 202 128 202 229 0 29 -5 62 -10 73 -14 26 -52
24 -77 -3z m50 -67 c-2 -29 -6 -58 -10 -65 -34 -57 -120 -126 -157 -126 -12 0
-32 -7 -44 -16 -35 -24 -38 -9 -6 29 16 19 37 44 46 56 10 11 25 21 33 21 9 0
41 19 72 41 54 40 55 42 50 81 -4 27 -2 38 6 35 8 -2 11 -23 10 -56z m-301
-245 c-11 -11 -18 -26 -15 -32 5 -16 -52 -62 -107 -87 -25 -12 -48 -23 -52
-25 -5 -2 -8 1 -8 6 0 5 16 17 35 26 19 9 35 20 35 24 0 4 10 12 22 17 13 6
38 31 57 57 19 26 39 44 44 41 5 -3 0 -15 -11 -27z m-227 -176 c-3 -5 -13 -10
-21 -10 -8 0 -12 5 -9 10 3 6 13 10 21 10 8 0 12 -4 9 -10z"/>
<path d="M17800 1751 c0 -12 -7 -20 -17 -19 -16 0 -39 -7 -103 -31 -8 -3 2 -7
22 -9 48 -4 118 30 118 58 0 11 -4 20 -10 20 -5 0 -10 -9 -10 -19z"/>
<path d="M17705 1745 c-39 -17 -11 -18 35 0 23 9 28 14 15 14 -11 0 -33 -6
-50 -14z"/>
<path d="M19893 1635 c-7 -8 -13 -19 -13 -25 0 -16 47 -12 64 6 22 21 20 27
-4 12 -10 -7 -23 -9 -27 -5 -4 5 -1 12 7 17 13 9 13 10 0 9 -8 0 -21 -6 -27
-14z"/>
<path d="M18424 1052 c-110 -59 -119 -82 -31 -82 73 0 124 17 143 46 15 23 15
26 -1 44 -24 26 -50 25 -111 -8z m75 -18 c-12 -15 -76 -30 -86 -20 -8 7 79 45
90 39 4 -3 3 -11 -4 -19z"/>
</g>
</svg>
